<?xml version="1.0" encoding="UTF-8" standalone="no"?><!DOCTYPE svg PUBLIC "-//W3C//DTD SVG 1.1//EN" "http://www.w3.org/Graphics/SVG/1.1/DTD/svg11.dtd"><svg width="100%" height="100%" viewBox="0 0 5000 3500" version="1.1" xmlns="http://www.w3.org/2000/svg" xmlns:xlink="http://www.w3.org/1999/xlink" xml:space="preserve" xmlns:serif="http://www.serif.com/" style="fill-rule:evenodd;clip-rule:evenodd;"><g><path d="M4910.671,350.075l0,2900.002c0,73.588 -59.75,133.333 -133.333,133.333l-4558.329,0c-73.588,0 -133.333,-59.746 -133.333,-133.333l0,-2900.002c0,-73.588 59.746,-133.333 133.333,-133.333l4558.329,0c73.583,0 133.333,59.746 133.333,133.333Z" style="fill:#070c10;"/><g><path d="M4150.268,3142.685l7.386,7.96l161.364,6.216l39.962,44.229l23.011,0l39.867,-44.184l161.601,-6.261l7.339,-8.005l-172.396,3.041l-38.921,32.154l-17.992,0l-38.968,-32.154l-172.254,-2.996Z" style="fill:#808080;fill-rule:nonzero;"/></g><g><path d="M4332.758,3100.823c0,-15.625 16.208,-23.083 29.917,-23.083c13.708,0 29.792,7.333 29.792,23.083c0,15.75 -16.167,23.167 -29.792,23.167c-13.625,0 -29.917,-7.625 -29.917,-23.167Zm22.333,-0.333c0,4.5 1.917,11.542 7.583,11.542c5.667,0 7.542,-7.042 7.542,-11.542c0,-4.5 -1.917,-11.458 -7.542,-11.458c-5.625,0 -7.583,6.958 -7.583,11.458Zm-82.458,-4.417l2.333,0c2.583,0 5.917,-0.125 5.917,-3.5c0,-3.375 -3.167,-3.542 -5.667,-3.542l-2.583,0l0,7.042Zm35.958,24.5l-12.208,-13.792c11.625,-12.083 4.417,-29.042 -12.5,-29.042l-33.375,0l0.125,34.583l-20.333,-34.583l-23.5,0l-27.333,46.25l26.5,0l3.417,-6.792l19.167,0l3.917,6.708l40.125,0l0,-15.458l12.625,15.5l45.25,0l0,-46.25l-21.958,0l0,42.833l0.083,0.042Zm-93.708,-15.708l7.583,0l-3.708,-8l-3.875,8Zm-76.083,19.167l0,-53.875l21.875,0l0,29.625l16.375,-29.625l25.125,0l-32.208,53.875l-31.208,0l0.042,0Zm439.75,0l15.958,-46.25l16.75,0l-15.958,46.25l-16.75,0Zm-21.292,0l11.125,-31.333l16.708,0l-11.083,31.333l-16.75,0Zm12.167,-34.958l4,-11.292l16.75,0l-4.042,11.333l-16.708,0l0,-0.042Zm-41.5,-11.333l16.417,0l-4.75,14.958c-0.292,0.958 10.333,-8 19.417,2.167c11.583,13 -10.292,40.542 -28.917,26.458l-0.792,2.667l-17.167,0l15.833,-46.25l-0.042,0Zm16.542,29.792c0.708,-2.083 0.75,-3.75 0.125,-5c-0.583,-1.25 -1.708,-1.875 -3.333,-1.875c-1.625,0 -3.208,0.625 -4.583,1.875c-1.417,1.25 -2.5,2.917 -3.167,5c-0.708,2.042 -0.75,3.75 -0.208,5.042c0.583,1.333 1.667,2 3.333,2c1.583,0 3.167,-0.667 4.583,-2c1.458,-1.292 2.542,-3 3.208,-5.042l0.042,0Zm-56.833,18.333c-11.125,0.083 -20.208,-7.833 -15.917,-19.5c4.083,-11.083 12.833,-16.375 27.708,-16.125c7.125,0.083 15.167,4.25 16.167,11.792c1.875,13.667 -10.625,24.167 -27.958,23.833Zm3.042,-10.875c1.542,0.083 2.958,-0.458 4.333,-1.708c1.417,-1.25 2.542,-2.917 3.292,-5.042c0.75,-2.167 0.917,-3.917 0.458,-5.25c-0.458,-1.375 -1.417,-2.083 -2.958,-2.208c-1.583,-0.125 -3,0.417 -4.417,1.667c-1.333,1.25 -2.417,2.958 -3.25,5.083c-0.75,2.167 -0.917,3.917 -0.458,5.25c0.458,1.375 1.458,2.083 3,2.208Zm-91.542,8.917l11.583,-33.292l16.5,0l-1.208,3.625c5.208,-4.833 18.25,-5.25 21.417,0.667c7.708,-7.958 27.292,-5.833 23.708,8.167l-7.625,20.917l-16.417,0c0.958,-2.833 1.917,-5.417 2.875,-8.208c1,-2.833 1.958,-5.625 2.917,-8.375c0.083,-0.25 0.208,-0.667 0.25,-1.125c0,-0.458 0,-1.042 -0.208,-1.458c-0.25,-0.708 -0.958,-1.083 -1.542,-1.292c-1.125,-0.333 -3.208,0.208 -4.292,1.625c-0.625,0.875 -0.875,1.125 -1.042,1.833l-6.292,17.083l-16.5,0l5.542,-15.917c1.208,-5.417 -1.917,-5.542 -4.583,-4.333c-1.417,0.792 -2.167,2.625 -2.75,4.208l-5.75,16.083l-16.542,-0.083l-0.042,-0.125Z" style="fill:#fff;fill-rule:nonzero;"/></g><path d="M4919.004,350.075l0,2900.002c0,78.188 -63.458,141.667 -141.667,141.667l-4558.329,0c-78.188,0 -141.667,-63.479 -141.667,-141.667l-0,-2900.002c0,-78.188 63.479,-141.667 141.667,-141.667l4558.329,0c78.208,0 141.667,63.479 141.667,141.667Z" style="fill:none;stroke:#f4f4f6;stroke-width:16.67px;"/></g><g><rect x="366.667" y="500" width="4266.67" height="2500.002" style="fill:#070c10;"/></g><g><rect x="366.667" y="500" width="4266.67" height="2500.002"/></g></svg>