<svg xmlns="http://www.w3.org/2000/svg" viewBox="0 0 32 32" fill="none" stroke="currentColor" stroke-width="2" stroke-linecap="round" stroke-linejoin="round">
  <!-- Flame shape for heating -->
  <path d="M16 3c0 0-6 7-6 13a6 6 0 0 0 12 0c0-6-6-13-6-13z"/>
  <path d="M16 10c0 0-3 3.5-3 6.5a3 3 0 0 0 6 0c0-3-3-6.5-3-6.5z"/>
  <!-- Radiator lines at bottom -->
  <line x1="8" y1="26" x2="8" y2="29"/>
  <line x1="12" y1="26" x2="12" y2="29"/>
  <line x1="16" y1="26" x2="16" y2="29"/>
  <line x1="20" y1="26" x2="20" y2="29"/>
  <line x1="24" y1="26" x2="24" y2="29"/>
  <line x1="7" y1="26" x2="25" y2="26"/>
</svg>
