<?xml version="1.0" encoding="UTF-8" standalone="no"?>
<!DOCTYPE svg PUBLIC "-//W3C//DTD SVG 1.1//EN" "http://www.w3.org/Graphics/SVG/1.1/DTD/svg11.dtd">
<svg width="100%" height="100%" viewBox="0 0 10000 7000" version="1.1" xmlns="http://www.w3.org/2000/svg" xmlns:xlink="http://www.w3.org/1999/xlink" xml:space="preserve" xmlns:serif="http://www.serif.com/" style="fill-rule:evenodd;clip-rule:evenodd;">
    <g>
        <path d="M9844.68,698.331L9844.68,6498.34C9844.68,6645.5 9725.18,6765 9578,6765L461.336,6765C314.16,6765 194.67,6645.5 194.67,6498.34L194.67,698.331C194.67,551.153 314.16,431.665 461.336,431.665L9578,431.665C9725.18,431.665 9844.68,551.153 9844.68,698.331Z" style="fill:rgb(7,12,16);"/>
        <path id="path2713" d="M7649.27,6244.53C7649.27,6273.28 7626.04,6296.54 7597.23,6296.54C7568.53,6296.54 7545.3,6273.28 7545.3,6244.53C7545.3,6215.82 7568.53,6192.49 7597.23,6192.49C7626.04,6192.49 7649.27,6215.82 7649.27,6244.53M7878.82,6291.67L7824.41,6138.97C7808.63,6094.75 7766.28,6063.05 7716.66,6063.05L7397.51,6063.05C7334.38,6063.05 7283.2,6114.28 7283.2,6177.37C7283.2,6240.52 7334.38,6291.67 7397.51,6291.67L7529.02,6291.67L7529.02,6269.54C7485.04,6261.87 7451.67,6223.54 7451.67,6177.37C7451.67,6125.72 7493.52,6083.8 7545.23,6083.8C7590.41,6083.8 7629.01,6112.58 7643.32,6152.79L7692.83,6291.67" style="fill:rgb(128,128,128);fill-rule:nonzero;"/>
        <path id="path2717" d="M8515.56,6131.63C8515.56,6139.07 8515.61,6163.25 8515.61,6170.65L8535.25,6170.65L8535.25,6258.76L8515.61,6258.76L8515.61,6297.43L8627.8,6297.43L8627.8,6170.65L8682.34,6170.65C8723.02,6172.46 8722.06,6226.03 8682.85,6228.06L8662.32,6228.06C8671.79,6241.01 8710.55,6293.81 8713.21,6297.43L8767.95,6297.43C8759.11,6285.76 8732.53,6250.99 8732.53,6250.99L8740.63,6246.56C8763.45,6231.13 8773.43,6204.47 8763.51,6178.38L8760.44,6172.54C8760.41,6172.54 8754.14,6163.07 8752.77,6161.11L8743.34,6151.57L8731.67,6143.23L8719.79,6137.04L8707.59,6133.11L8695.4,6131.63M8803.98,6131.88L8803.98,6170.65L8823.62,6170.65L8823.62,6258.76L8803.98,6258.76L8803.98,6297.72C8813.19,6297.72 8907,6297.49 8916.17,6297.43L8916.17,6131.63C8907,6131.67 8813.07,6131.88 8803.98,6131.88M8045.09,6226.29L8082.57,6226.29C8078.9,6216.92 8067.29,6187.61 8060.59,6170.62C8055.7,6188.05 8047.51,6217.54 8045.09,6226.29M8145.67,6132.19C8148.07,6138.45 8203.62,6284.93 8208.45,6297.72L8108.74,6297.72C8106.57,6291.72 8090.9,6248.32 8090.9,6248.32L8038.84,6248.32C8038.84,6248.32 8025.87,6291.33 8024.01,6297.72L7959.11,6297.72L7959.11,6258.74L7980.21,6258.74L8007,6170.65L7959.11,6170.65L7959.11,6132.19M9036.43,6226.29L9073.63,6226.29C9070.09,6216.98 9058.97,6187.77 9052.49,6170.62C9047.43,6188.07 9038.92,6217.54 9036.43,6226.29M9136.65,6132.19C9139.1,6138.45 9195.42,6284.89 9200.35,6297.72L9099.75,6297.72C9097.61,6291.72 9081.93,6248.32 9081.93,6248.32L9030.17,6248.32C9030.17,6248.32 9016.38,6291.44 9014.43,6297.72L8950.41,6297.72L8950.41,6258.74L8971.55,6258.74L8998.33,6170.65L8950.41,6170.65L8950.41,6132.19M8351.03,6170.65L8351.03,6258.76L8390.76,6258.76C8390.76,6258.76 8398.46,6258.24 8400.16,6258.13L8408.46,6255.47C8439.09,6243.27 8447.61,6206.87 8423.34,6183.41L8416,6178.22C8416,6178.28 8410.09,6174.85 8408.46,6173.91L8399.54,6171.86L8390.03,6170.65L8351.03,6170.65ZM8404.44,6131.63L8412.89,6132.2C8461.14,6136.26 8501.26,6182.4 8490.04,6231.36L8487.69,6239.24L8487.69,6239.18L8484.97,6246.56C8471.37,6276.08 8447.04,6293.62 8414.43,6297.43L8239.48,6297.43L8239.48,6258.76L8259.36,6258.76L8259.36,6170.65L8239.48,6170.65L8239.48,6131.63" style="fill:rgb(128,128,128);fill-rule:nonzero;"/>
        <path d="M9838.02,700.15L9838.02,6500.16C9838.02,6656.52 9711.06,6783.48 9554.68,6783.48L438.016,6783.48C281.64,6783.48 154.684,6656.52 154.684,6500.16L154.684,700.15C154.684,543.774 281.64,416.816 438.016,416.816L9554.68,416.816C9711.06,416.816 9838.02,543.774 9838.02,700.15Z" style="fill:none;stroke:rgb(244,244,246);stroke-width:33.34px;"/>
        <g>
            <path d="M7299.62,6518.18C7313.1,6524.79 7324.54,6529.43 7333.95,6532.09C7343.35,6534.75 7352.53,6536.08 7361.48,6536.08C7370.53,6536.08 7377.8,6534.49 7383.28,6531.3C7388.76,6528.12 7391.51,6524.02 7391.51,6519.02C7391.51,6511.85 7381.75,6503.78 7362.24,6494.83C7359.12,6493.38 7356.7,6492.25 7354.99,6491.44L7340.21,6484.79C7325.82,6478.26 7315.16,6470.88 7308.22,6462.65C7301.28,6454.43 7297.81,6445.11 7297.81,6434.71C7297.81,6420.6 7304.45,6409.03 7317.73,6399.99C7331,6390.96 7348.15,6386.44 7369.18,6386.44C7376.92,6386.44 7385.32,6387.17 7394.37,6388.62C7403.42,6390.07 7413.48,6392.33 7424.55,6395.4L7424.55,6436.53C7413.99,6431.2 7403.98,6427.09 7394.52,6424.19C7385.07,6421.28 7377.02,6419.83 7370.38,6419.83C7363.04,6419.83 7357.26,6421.1 7353.03,6423.64C7348.81,6426.18 7346.69,6429.63 7346.69,6433.99C7346.69,6437.05 7347.95,6439.91 7350.47,6442.57C7352.98,6445.23 7356.75,6447.65 7361.78,6449.83L7387.43,6461.2C7408.86,6470.72 7423.26,6479.51 7430.66,6487.57C7438.05,6495.64 7441.75,6505.19 7441.75,6516.24C7441.75,6533.34 7434.48,6547.15 7419.94,6557.67C7405.41,6568.2 7386.12,6573.46 7362.08,6573.46C7353.94,6573.46 7345.09,6572.77 7335.53,6571.4C7325.97,6570.03 7315.46,6567.89 7304,6564.99L7299.62,6518.18Z" style="fill:rgb(128,128,128);fill-rule:nonzero;"/>
            <path d="M7529.25,6392.37L7529.25,6488.78C7529.25,6504.27 7532.8,6515.86 7539.89,6523.56C7546.98,6531.26 7557.72,6535.11 7572.1,6535.11C7585.98,6535.11 7596.57,6531.52 7603.86,6524.35C7611.15,6517.17 7614.8,6506.73 7614.8,6493.02L7614.8,6392.37L7661.42,6392.37L7661.42,6493.02C7661.42,6518.34 7653.32,6538.07 7637.13,6552.23C7620.94,6566.38 7598.46,6573.46 7569.69,6573.46C7540.62,6573.46 7518.01,6566.44 7501.87,6552.41C7485.73,6538.38 7477.65,6518.66 7477.65,6493.26L7477.65,6392.37L7529.25,6392.37Z" style="fill:rgb(128,128,128);fill-rule:nonzero;"/>
            <path d="M7768.69,6424.55L7761.6,6424.55L7761.6,6471.36L7771.11,6471.36C7784.28,6471.36 7794.34,6469.33 7801.28,6465.25C7808.22,6461.18 7811.69,6455.32 7811.69,6447.65C7811.69,6439.67 7808.27,6433.82 7801.43,6430.11C7794.6,6426.4 7783.68,6424.55 7768.69,6424.55ZM7709.4,6567.77L7709.4,6392.37L7765.68,6392.37C7782.98,6392.37 7796.71,6393.38 7806.87,6395.4C7817.03,6397.41 7826.03,6400.8 7833.87,6405.56C7842.02,6410.32 7848.33,6416.26 7852.81,6423.4C7857.28,6430.54 7859.52,6438.1 7859.52,6446.08C7859.52,6463.82 7851.65,6477.9 7835.91,6488.3C7820.17,6498.7 7798.82,6503.9 7771.86,6503.9C7769.05,6503.9 7766.93,6503.88 7765.53,6503.84C7764.12,6503.8 7762.81,6503.74 7761.6,6503.66L7761.6,6567.77L7709.4,6567.77Z" style="fill:rgb(128,128,128);fill-rule:nonzero;"/>
            <path d="M7891.96,6567.77L7891.96,6392.37L8026.69,6392.37L8026.69,6428.54L7942.65,6428.54L7942.65,6460.23L8014.62,6460.23L8014.62,6496.16L7942.65,6496.16L7942.65,6530.88L8027.9,6530.88L8027.9,6567.77L7891.96,6567.77Z" style="fill:rgb(128,128,128);fill-rule:nonzero;"/>
            <path d="M8127.03,6424.31L8118.43,6424.31L8118.43,6472.94L8129.44,6472.94C8142.61,6472.94 8152.67,6470.8 8159.61,6466.52C8166.55,6462.25 8170.02,6456.12 8170.02,6448.14C8170.02,6439.75 8166.65,6433.68 8159.92,6429.93C8153.18,6426.18 8142.21,6424.31 8127.03,6424.31ZM8067.73,6567.77L8067.73,6392.37L8124.01,6392.37C8142.01,6392.37 8155.97,6393.32 8165.88,6395.22C8175.78,6397.11 8184.56,6400.28 8192.2,6404.71C8200.35,6409.39 8206.66,6415.18 8211.14,6422.07C8215.61,6428.97 8217.85,6436.24 8217.85,6443.9C8217.85,6454.95 8214.36,6464.63 8207.37,6472.94C8200.38,6481.24 8190.29,6487.73 8177.11,6492.41L8243.8,6567.77L8184.21,6567.77L8125.82,6498.94L8118.43,6498.94L8118.43,6567.77L8067.73,6567.77Z" style="fill:rgb(128,128,128);fill-rule:nonzero;"/>
            <path d="M8254.67,6518.18C8268.14,6524.79 8279.59,6529.43 8288.99,6532.09C8298.39,6534.75 8307.57,6536.08 8316.52,6536.08C8325.58,6536.08 8332.84,6534.49 8338.33,6531.3C8343.81,6528.12 8346.55,6524.02 8346.55,6519.02C8346.55,6511.85 8336.79,6503.78 8317.28,6494.83C8314.16,6493.38 8311.75,6492.25 8310.04,6491.44L8295.25,6484.79C8280.87,6478.26 8270.21,6470.88 8263.26,6462.65C8256.33,6454.43 8252.85,6445.11 8252.85,6434.71C8252.85,6420.6 8259.49,6409.03 8272.77,6399.99C8286.05,6390.96 8303.2,6386.44 8324.22,6386.44C8331.96,6386.44 8340.36,6387.17 8349.42,6388.62C8358.47,6390.07 8368.53,6392.33 8379.59,6395.4L8379.59,6436.53C8369.03,6431.2 8359.02,6427.09 8349.57,6424.19C8340.11,6421.28 8332.07,6419.83 8325.43,6419.83C8318.08,6419.83 8312.3,6421.1 8308.08,6423.64C8303.85,6426.18 8301.74,6429.63 8301.74,6433.99C8301.74,6437.05 8303,6439.91 8305.51,6442.57C8308.02,6445.23 8311.8,6447.65 8316.83,6449.83L8342.48,6461.2C8363.9,6470.72 8378.31,6479.51 8385.7,6487.57C8393.09,6495.64 8396.79,6505.19 8396.79,6516.24C8396.79,6533.34 8389.52,6547.15 8374.99,6557.67C8360.45,6568.2 8341.17,6573.46 8317.13,6573.46C8308.98,6573.46 8300.13,6572.77 8290.57,6571.4C8281.02,6570.03 8270.51,6567.89 8259.04,6564.99L8254.67,6518.18Z" style="fill:rgb(128,128,128);fill-rule:nonzero;"/>
            <path d="M8474.94,6480.07C8474.94,6495.31 8480.5,6508.08 8491.62,6518.36C8502.73,6528.64 8516.43,6533.78 8532.73,6533.78C8549.12,6533.78 8562.85,6528.66 8573.92,6518.42C8584.98,6508.18 8590.51,6495.4 8590.51,6480.07C8590.51,6464.67 8584.98,6451.83 8573.92,6441.55C8562.85,6431.26 8549.12,6426.12 8532.73,6426.12C8516.43,6426.12 8502.73,6431.26 8491.62,6441.55C8480.5,6451.83 8474.94,6464.67 8474.94,6480.07ZM8421.23,6480.07C8421.23,6467.09 8424.02,6454.93 8429.61,6443.6C8435.19,6432.27 8443.41,6422.13 8454.27,6413.18C8464.53,6404.63 8476.45,6398.08 8490.03,6393.52C8503.61,6388.97 8517.84,6386.69 8532.73,6386.69C8547.62,6386.69 8561.87,6388.99 8575.5,6393.58C8589.13,6398.18 8601.23,6404.79 8611.79,6413.42C8622.45,6422.05 8630.52,6432.03 8636,6443.36C8641.49,6454.69 8644.23,6466.93 8644.23,6480.07C8644.23,6491.04 8642.32,6501.36 8638.49,6511.04C8634.67,6520.72 8628.99,6529.55 8621.44,6537.53C8610.78,6548.9 8597.68,6557.73 8582.14,6564.02C8566.6,6570.31 8550.13,6573.46 8532.73,6573.46C8517.94,6573.46 8503.79,6571.16 8490.26,6566.56C8476.73,6561.97 8464.74,6555.35 8454.27,6546.72C8443.41,6537.77 8435.19,6527.67 8429.61,6516.42C8424.02,6505.17 8421.23,6493.06 8421.23,6480.07Z" style="fill:rgb(128,128,128);fill-rule:nonzero;"/>
            <path d="M8680.74,6567.77L8680.74,6386.69L8685.72,6386.69L8821.96,6489.02L8821.96,6392.37L8870.09,6392.37L8870.09,6574.43L8865.56,6574.43L8728.87,6472.09L8728.87,6567.77L8680.74,6567.77Z" style="fill:rgb(128,128,128);fill-rule:nonzero;"/>
            <rect x="8920.78" y="6392.37" width="52.203" height="175.4" style="fill:rgb(128,128,128);fill-rule:nonzero;"/>
            <path d="M9185.57,6447.9C9176.11,6440.07 9166.53,6434.27 9156.83,6430.48C9147.12,6426.69 9136.94,6424.79 9126.27,6424.79C9107.77,6424.79 9092.63,6429.91 9080.86,6440.15C9069.09,6450.4 9063.21,6463.54 9063.21,6479.59C9063.21,6495.64 9069.04,6508.64 9080.71,6518.6C9092.38,6528.56 9107.57,6533.54 9126.27,6533.54C9137.34,6533.54 9148.38,6531.68 9159.39,6527.98C9170.41,6524.27 9181.4,6518.7 9192.36,6511.28L9189.04,6557.85C9179.68,6562.93 9169.45,6566.81 9158.34,6569.47C9147.22,6572.13 9135.68,6573.46 9123.71,6573.46C9110.84,6573.46 9098.49,6571.85 9086.67,6568.62C9074.85,6565.39 9063.96,6560.64 9054.01,6554.35C9039.92,6545.47 9029.14,6534.65 9021.64,6521.87C9014.15,6509.08 9010.4,6495.15 9010.4,6480.07C9010.4,6467.09 9013.17,6454.91 9018.7,6443.54C9024.23,6432.17 9032.28,6422.13 9042.84,6413.42C9053.5,6404.71 9065.82,6398.04 9079.81,6393.4C9093.79,6388.76 9108.52,6386.44 9124.01,6386.44C9136.28,6386.44 9148,6387.82 9159.17,6390.56C9170.33,6393.3 9180.99,6397.45 9191.15,6403.02L9185.57,6447.9Z" style="fill:rgb(128,128,128);fill-rule:nonzero;"/>
        </g>
    </g>
    <rect x="733.334" y="1000" width="8533.34" height="5000" style="fill:rgb(7,12,16);"/>
    <rect x="733.334" y="1000" width="8533.34" height="5000"/>
</svg>
