<?xml version="1.0" encoding="UTF-8" standalone="no"?>
<!DOCTYPE svg PUBLIC "-//W3C//DTD SVG 1.1//EN" "http://www.w3.org/Graphics/SVG/1.1/DTD/svg11.dtd">
<svg width="100%" height="100%" viewBox="0 0 10000 7000" version="1.1" xmlns="http://www.w3.org/2000/svg" xmlns:xlink="http://www.w3.org/1999/xlink" xml:space="preserve" xmlns:serif="http://www.serif.com/" style="fill-rule:evenodd;clip-rule:evenodd;">
    <g>
        <path d="M9821.36,700.15L9821.36,6500.16C9821.36,6647.32 9701.86,6766.82 9554.68,6766.82L438.016,6766.82C290.84,6766.82 171.35,6647.32 171.35,6500.16L171.35,700.15C171.35,552.972 290.84,433.484 438.016,433.484L9554.68,433.484C9701.86,433.484 9821.36,552.972 9821.36,700.15Z" style="fill:rgb(7,12,16);"/>
        <path d="M7879.64,6482.56L7900,6504.94L8345.02,6522.36L8455.2,6646.9L8518.74,6646.94L8628.56,6522.56L9074.24,6504.92L9094.46,6482.36L8619.08,6490.94L8511.8,6581.44L8462.1,6581.44L8354.68,6491L7879.64,6482.56Z" style="fill:rgb(128,128,128);fill-rule:nonzero;"/>
        <path d="M9838.02,700.15L9838.02,6500.16C9838.02,6656.52 9711.06,6783.48 9554.68,6783.48L438.016,6783.48C281.64,6783.48 154.684,6656.52 154.684,6500.16L154.684,700.15C154.684,543.774 281.64,416.816 438.016,416.816L9554.68,416.816C9711.06,416.816 9838.02,543.774 9838.02,700.15Z" style="fill:none;stroke:rgb(244,244,246);stroke-width:33.34px;"/>
        <path d="M8360.57,6331.02C8360.57,6297.36 8409.65,6281.36 8451.09,6281.36C8492.55,6281.36 8541.35,6297.14 8541.35,6331.02C8541.35,6364.9 8492.37,6380.9 8451.09,6380.9C8409.81,6380.9 8360.57,6364.48 8360.57,6331.02ZM8428.13,6330.3C8428.13,6339.96 8433.93,6355.14 8451.09,6355.14C8468.27,6355.14 8473.93,6339.96 8473.93,6330.3C8473.93,6320.64 8468.13,6305.66 8451.09,6305.66C8434.07,6305.66 8428.13,6320.64 8428.13,6330.3ZM8178.53,6320.76L8185.61,6320.76C8193.39,6320.76 8203.51,6320.44 8203.51,6313.28C8203.51,6306.1 8193.99,6305.7 8186.35,6305.7L8178.55,6305.7L8178.55,6320.78L8178.53,6320.76ZM8287.37,6373.52L8250.41,6343.86C8285.63,6317.88 8263.83,6281.36 8212.59,6281.36L8111.55,6281.36L8111.99,6355.74L8050.49,6281.36L7979.31,6281.36L7896.57,6380.9L7976.83,6380.9L7987.23,6366.34L8045.27,6366.34L8057.13,6380.8L8178.53,6380.9L8178.53,6347.56L8216.79,6380.9L8353.81,6380.9L8353.81,6281.36L8287.39,6281.36L8287.39,6373.52L8287.37,6373.52ZM8003.69,6339.64L8026.65,6339.64L8015.37,6322.4L8003.69,6339.64ZM7773.45,6380.9L7773.45,6264.94L7839.71,6264.94L7839.71,6328.66L7889.23,6264.94L7965.31,6264.94L7867.85,6380.9L7773.45,6380.9ZM9120.05,6380.9L9168.41,6281.36L9219.07,6281.36L9170.71,6380.9L9120.05,6380.9ZM9055.65,6380.9L9089.27,6313.46L9139.79,6313.46L9106.31,6380.9L9049.89,6380.9L9055.65,6380.9ZM9092.45,6305.66L9104.57,6281.36L9155.23,6281.36L9142.97,6305.76L9092.45,6305.66ZM8961.09,6281.36L9010.77,6281.36L8996.35,6313.56C8995.47,6315.62 9027.67,6296.32 9055.11,6318.18C9090.19,6346.22 9023.91,6405.44 8967.59,6375.14L8965.15,6380.9L8913.17,6380.9L8961.09,6281.36ZM9011.21,6345.4C9013.37,6340.86 9013.51,6337.28 9011.65,6334.6C9009.93,6331.94 9006.47,6330.6 9001.57,6330.6C8996.65,6330.6 8991.87,6331.94 8987.71,6334.6C8983.37,6337.28 8980.19,6340.86 8978.19,6345.4C8976.03,6349.8 8975.89,6353.5 8977.61,6356.28C8979.35,6359.14 8982.67,6360.58 8987.71,6360.58C8992.49,6360.58 8997.23,6359.14 9001.57,6356.28C9006.03,6353.5 9009.21,6349.8 9011.25,6345.4L9011.21,6345.4ZM8836.23,6384.9C8802.61,6385.1 8775.01,6368.06 8788.01,6342.92C8800.45,6319.1 8826.85,6307.72 8871.89,6308.22C8893.39,6308.44 8917.81,6317.34 8920.83,6333.58C8926.45,6363.02 8888.63,6385.6 8836.23,6384.9ZM8845.49,6361.5C8850.09,6361.72 8854.43,6360.46 8858.61,6357.82C8862.95,6355.14 8866.27,6351.56 8868.57,6346.94C8870.87,6342.32 8871.31,6338.5 8870.03,6335.64C8868.57,6332.66 8865.69,6331.12 8861.09,6330.92C8856.31,6330.6 8851.99,6331.84 8847.65,6334.52C8843.61,6337.18 8840.31,6340.86 8837.83,6345.48C8835.53,6350.1 8835.09,6353.92 8836.37,6356.78C8837.83,6359.76 8840.85,6361.3 8845.49,6361.5ZM8563.49,6380.68L8598.57,6309.04L8648.53,6309.04L8644.91,6316.84C8660.65,6306.46 8700.21,6305.54 8709.71,6318.28C8733.11,6301.14 8792.27,6305.76 8781.47,6335.84L8758.39,6380.9L8708.73,6380.9C8711.61,6374.84 8714.53,6369.2 8717.41,6363.26C8720.45,6357.18 8723.33,6351.14 8726.21,6345.2C8726.51,6344.7 8726.79,6343.76 8726.93,6342.74C8726.93,6341.7 8726.93,6340.48 8726.35,6339.56C8725.63,6338.02 8723.47,6337.2 8721.75,6336.8C8718.29,6336.08 8712.05,6337.2 8708.73,6340.28C8706.87,6342.14 8706.13,6342.74 8705.55,6344.18L8686.49,6380.92L8636.53,6380.92L8653.27,6346.64C8656.85,6334.94 8647.47,6334.76 8639.41,6337.3C8635.09,6339.04 8632.91,6342.94 8631.05,6346.34L8613.57,6380.92L8563.49,6380.72L8563.49,6380.68Z" style="fill:rgb(128,128,128);"/>
    </g>
    <rect x="733.334" y="1000" width="8533.34" height="5000" style="fill:rgb(7,12,16);"/>
    <rect x="733.334" y="1000" width="8533.34" height="5000"/>
</svg>
