<?xml version="1.0" encoding="UTF-8" standalone="no"?>
<!DOCTYPE svg PUBLIC "-//W3C//DTD SVG 1.1//EN" "http://www.w3.org/Graphics/SVG/1.1/DTD/svg11.dtd">
<svg width="100%" height="100%" viewBox="0 0 5000 3500" version="1.1" xmlns="http://www.w3.org/2000/svg" xmlns:xlink="http://www.w3.org/1999/xlink" xml:space="preserve" xmlns:serif="http://www.serif.com/" style="fill-rule:evenodd;clip-rule:evenodd;">
    <g>
        <path d="M4910.68,350.075L4910.68,3250.08C4910.68,3323.66 4850.93,3383.41 4777.34,3383.41L219.008,3383.41C145.42,3383.41 85.675,3323.66 85.675,3250.08L85.675,350.075C85.675,276.486 145.42,216.742 219.008,216.742L4777.34,216.742C4850.93,216.742 4910.68,276.486 4910.68,350.075Z" style="fill:rgb(7,12,16);"/>
        <path d="M3716.71,3196.64L3731.51,3213.06L4055.05,3225.84L4135.15,3317.17L4181.34,3317.2L4261.18,3225.99L4585.19,3213.05L4599.89,3196.5L4254.29,3202.79L4176.29,3269.17L4140.16,3269.16L4062.06,3202.83L3716.71,3196.64Z" style="fill:white;fill-rule:nonzero;"/>
        <path d="M4919.01,350.075L4919.01,3250.08C4919.01,3328.26 4855.53,3391.74 4777.34,3391.74L219.008,3391.74C140.82,3391.74 77.342,3328.26 77.342,3250.08L77.342,350.075C77.342,271.887 140.82,208.408 219.008,208.408L4777.34,208.408C4855.53,208.408 4919.01,271.887 4919.01,350.075Z" style="fill:none;stroke:rgb(244,244,246);stroke-width:16.67px;"/>
        <path d="M4086.79,3126.21C4086.79,3098.25 4115.77,3084.95 4140.25,3084.95C4164.73,3084.95 4193.55,3098.07 4193.55,3126.21C4193.55,3154.35 4164.63,3167.65 4140.25,3167.65C4115.87,3167.65 4086.79,3154.01 4086.79,3126.21ZM4126.69,3125.61C4126.69,3133.63 4130.11,3146.25 4140.25,3146.25C4150.39,3146.25 4153.73,3133.63 4153.73,3125.61C4153.73,3117.59 4150.31,3105.15 4140.25,3105.15C4130.19,3105.15 4126.69,3117.59 4126.69,3125.61ZM3979.27,3117.69L3983.45,3117.69C3988.05,3117.69 3994.03,3117.43 3994.03,3111.47C3994.03,3105.51 3988.41,3105.17 3983.89,3105.17L3979.29,3105.17L3979.29,3117.71L3979.27,3117.69ZM4043.55,3161.51L4021.73,3136.87C4042.53,3115.29 4029.65,3084.95 3999.39,3084.95L3939.71,3084.95L3939.97,3146.75L3903.65,3084.95L3861.61,3084.95L3812.75,3167.65L3860.15,3167.65L3866.29,3155.55L3900.57,3155.55L3907.57,3167.57L3979.27,3167.65L3979.27,3139.95L4001.87,3167.65L4082.79,3167.65L4082.79,3084.95L4043.57,3084.95L4043.57,3161.51L4043.55,3161.51ZM3876.01,3133.37L3889.57,3133.37L3882.91,3119.05L3876.01,3133.37ZM3740.03,3167.65L3740.03,3071.31L3779.17,3071.31L3779.17,3124.25L3808.41,3071.31L3853.35,3071.31L3795.79,3167.65L3740.03,3167.65ZM4535.33,3167.65L4563.89,3084.95L4593.81,3084.95L4565.25,3167.65L4535.33,3167.65ZM4497.29,3167.65L4517.15,3111.63L4546.99,3111.63L4527.21,3167.65L4493.89,3167.65L4497.29,3167.65ZM4519.03,3105.15L4526.19,3084.95L4556.11,3084.95L4548.87,3105.23L4519.03,3105.15ZM4441.45,3084.95L4470.79,3084.95L4462.27,3111.71C4461.75,3113.41 4480.77,3097.39 4496.97,3115.55C4517.69,3138.83 4478.55,3188.03 4445.29,3162.87L4443.85,3167.65L4413.15,3167.65L4441.45,3084.95ZM4471.05,3138.15C4472.33,3134.39 4472.41,3131.41 4471.31,3129.19C4470.29,3126.97 4468.25,3125.87 4465.35,3125.87C4462.45,3125.87 4459.63,3126.97 4457.17,3129.19C4454.61,3131.41 4452.73,3134.39 4451.55,3138.15C4450.27,3141.81 4450.19,3144.89 4451.21,3147.19C4452.23,3149.57 4454.19,3150.77 4457.17,3150.77C4459.99,3150.77 4462.79,3149.57 4465.35,3147.19C4467.99,3144.89 4469.87,3141.81 4471.07,3138.15L4471.05,3138.15ZM4367.71,3170.97C4347.85,3171.13 4331.55,3156.99 4339.23,3136.09C4346.57,3116.31 4362.17,3106.85 4388.77,3107.27C4401.47,3107.45 4415.89,3114.85 4417.67,3128.33C4420.99,3152.79 4398.65,3171.55 4367.71,3170.97ZM4373.17,3151.53C4375.89,3151.71 4378.45,3150.67 4380.93,3148.47C4383.49,3146.25 4385.45,3143.27 4386.81,3139.43C4388.17,3135.59 4388.43,3132.43 4387.67,3130.05C4386.81,3127.57 4385.11,3126.29 4382.39,3126.13C4379.57,3125.87 4377.01,3126.89 4374.45,3129.11C4372.07,3131.33 4370.11,3134.39 4368.65,3138.23C4367.29,3142.07 4367.03,3145.23 4367.79,3147.61C4368.65,3150.09 4370.43,3151.37 4373.17,3151.53ZM4206.63,3167.47L4227.35,3107.95L4256.85,3107.95L4254.71,3114.43C4264.01,3105.81 4287.37,3105.05 4292.99,3115.63C4306.81,3101.39 4341.75,3105.23 4335.37,3130.21L4321.73,3167.65L4292.41,3167.65C4294.11,3162.61 4295.83,3157.93 4297.53,3152.99C4299.33,3147.95 4301.03,3142.93 4302.73,3137.99C4302.91,3137.57 4303.07,3136.79 4303.15,3135.95C4303.15,3135.09 4303.15,3134.07 4302.81,3133.31C4302.39,3132.03 4301.11,3131.35 4300.09,3131.01C4298.05,3130.41 4294.37,3131.35 4292.41,3133.91C4291.31,3135.45 4290.87,3135.95 4290.53,3137.15L4279.27,3167.67L4249.77,3167.67L4259.65,3139.19C4261.77,3129.47 4256.23,3129.31 4251.47,3131.43C4248.91,3132.87 4247.63,3136.11 4246.53,3138.93L4236.21,3167.67L4206.63,3167.49L4206.63,3167.47Z" style="fill:white;"/>
    </g>
    <rect x="366.667" y="500" width="4266.67" height="2500" style="fill:rgb(7,12,16);"/>
    <rect x="366.667" y="500" width="4266.67" height="2500"/>
</svg>
