<?xml version="1.0" encoding="UTF-8" standalone="no"?>
<!DOCTYPE svg PUBLIC "-//W3C//DTD SVG 1.1//EN" "http://www.w3.org/Graphics/SVG/1.1/DTD/svg11.dtd">
<svg width="100%" height="100%" viewBox="0 0 5000 3500" version="1.1" xmlns="http://www.w3.org/2000/svg" xmlns:xlink="http://www.w3.org/1999/xlink" xml:space="preserve" xmlns:serif="http://www.serif.com/" style="fill-rule:evenodd;clip-rule:evenodd;">
    <g transform="matrix(4.16667,0,0,4.16667,0,0)">
        <path d="M1178.56,84.018L1178.56,780.018C1178.56,797.679 1164.22,812.018 1146.56,812.018L52.562,812.018C34.901,812.018 20.562,797.679 20.562,780.018L20.562,84.018C20.562,66.357 34.901,52.018 52.562,52.018L1146.56,52.018C1164.22,52.018 1178.56,66.357 1178.56,84.018Z" style="fill:rgb(7,12,16);"/>
        <g transform="matrix(1.2705,0,0,1.19999,591.087,532.895)">
            <path d="M314.22,191.66L315.78,193.44L349.86,194.83L358.3,204.72L363.16,204.72L371.58,194.84L405.71,193.44L407.26,191.65L370.85,192.33L362.63,199.52L358.83,199.52L350.6,192.33L314.22,191.66Z" style="fill:rgb(128,128,128);fill-rule:nonzero;"/>
        </g>
        <g transform="matrix(1,0,0,1,689.361,573.837)">
            <path d="M350.5,170.36C350.5,166.61 354.39,164.82 357.68,164.82C360.97,164.82 364.83,166.58 364.83,170.36C364.83,174.14 360.95,175.92 357.68,175.92C354.41,175.92 350.5,174.09 350.5,170.36ZM355.86,170.28C355.86,171.36 356.32,173.05 357.68,173.05C359.04,173.05 359.49,171.36 359.49,170.28C359.49,169.2 359.03,167.53 357.68,167.53C356.33,167.53 355.86,169.2 355.86,170.28ZM336.07,169.22L336.63,169.22C337.25,169.22 338.05,169.19 338.05,168.38C338.05,167.57 337.29,167.53 336.69,167.53L336.07,167.53L336.07,169.22ZM344.7,175.1L341.77,171.79C344.56,168.89 342.83,164.82 338.77,164.82L330.76,164.82L330.79,173.12L325.91,164.82L320.27,164.82L313.71,175.92L320.07,175.92L320.89,174.29L325.49,174.29L326.43,175.9L336.06,175.9L336.06,172.19L339.09,175.91L349.95,175.91L349.95,164.81L344.68,164.81L344.68,175.09L344.7,175.1ZM322.21,171.33L324.03,171.33L323.14,169.41L322.21,171.33ZM303.95,175.93L303.95,163L309.2,163L309.2,170.11L313.13,163L319.16,163L311.43,175.93L303.94,175.93L303.95,175.93ZM409.49,175.93L413.32,164.83L417.34,164.83L413.51,175.93L409.49,175.93ZM404.38,175.93L407.05,168.41L411.06,168.41L408.4,175.93L404.38,175.93ZM407.3,167.54L408.26,164.83L412.28,164.83L411.31,167.55L407.3,167.55L407.3,167.54ZM397.34,164.82L401.28,164.82L400.14,168.41C400.07,168.64 402.62,166.49 404.8,168.93C407.58,172.05 402.33,178.66 397.86,175.28L397.67,175.92L393.55,175.92L397.35,164.82L397.34,164.82ZM401.31,171.97C401.48,171.47 401.49,171.07 401.34,170.77C401.2,170.47 400.93,170.32 400.54,170.32C400.15,170.32 399.77,170.47 399.44,170.77C399.1,171.07 398.84,171.47 398.68,171.97C398.51,172.46 398.5,172.87 398.63,173.18C398.77,173.5 399.03,173.66 399.43,173.66C399.81,173.66 400.19,173.5 400.53,173.18C400.88,172.87 401.14,172.46 401.3,171.97L401.31,171.97ZM387.67,176.37C385,176.39 382.82,174.49 383.85,171.69C384.83,169.03 386.93,167.76 390.5,167.82C392.21,167.84 394.14,168.84 394.38,170.65C394.83,173.93 391.83,176.45 387.67,176.37ZM388.4,173.76C388.77,173.78 389.11,173.65 389.44,173.35C389.78,173.05 390.05,172.65 390.23,172.14C390.41,171.62 390.45,171.2 390.34,170.88C390.23,170.55 390,170.38 389.63,170.35C389.25,170.32 388.91,170.45 388.57,170.75C388.25,171.05 387.99,171.46 387.79,171.97C387.61,172.49 387.57,172.91 387.68,173.23C387.79,173.56 388.03,173.73 388.4,173.76ZM366.43,175.9L369.21,167.91L373.17,167.91L372.88,168.78C374.13,167.62 377.26,167.52 378.02,168.94C379.87,167.03 384.57,167.54 383.71,170.9L381.88,175.92L377.94,175.92C378.17,175.24 378.4,174.62 378.63,173.95C378.87,173.27 379.1,172.6 379.33,171.94C379.35,171.88 379.38,171.78 379.39,171.67C379.39,171.56 379.39,171.42 379.34,171.32C379.28,171.15 379.11,171.06 378.97,171.01C378.7,170.93 378.2,171.06 377.94,171.4C377.79,171.61 377.73,171.67 377.69,171.84L376.18,175.94L372.22,175.94L373.55,172.12C373.84,170.82 373.09,170.79 372.45,171.08C372.11,171.27 371.93,171.71 371.79,172.09L370.41,175.95L366.44,175.93L366.43,175.9Z" style="fill:white;fill-rule:nonzero;"/>
        </g>
        <path d="M1180.56,84.018L1180.56,780.018C1180.56,798.783 1165.33,814.018 1146.56,814.018L52.562,814.018C33.797,814.018 18.562,798.783 18.562,780.018L18.562,84.018C18.562,65.253 33.797,50.018 52.562,50.018L1146.56,50.018C1165.33,50.018 1180.56,65.253 1180.56,84.018Z" style="fill:none;stroke:rgb(244,244,246);stroke-width:4px;"/>
    </g>
    <g transform="matrix(4.16667,0,0,4.16667,366.667,500)">
        <rect x="0" y="0" width="1024" height="600" style="fill:rgb(7,12,16);"/>
    </g>
    <g transform="matrix(4.16667,0,0,4.16667,0,0)">
        <rect x="88" y="120" width="1024" height="600"/>
    </g>
</svg>
