<?xml version="1.0" encoding="UTF-8" standalone="no"?>
<!DOCTYPE svg PUBLIC "-//W3C//DTD SVG 1.1//EN" "http://www.w3.org/Graphics/SVG/1.1/DTD/svg11.dtd">
<svg width="100%" height="100%" viewBox="0 0 2376 450" version="1.1" xmlns="http://www.w3.org/2000/svg" xmlns:xlink="http://www.w3.org/1999/xlink" xml:space="preserve" xmlns:serif="http://www.serif.com/" style="fill-rule:evenodd;clip-rule:evenodd;stroke-linejoin:round;stroke-miterlimit:2;">
    <path id="path2713" d="M824.726,189.404C824.726,211.998 807.093,230.281 785.219,230.281C763.433,230.281 745.8,211.998 745.8,189.404C745.8,166.832 763.433,148.491 785.219,148.491C807.093,148.491 824.726,166.832 824.726,189.404M998.974,226.454L957.674,106.415C945.696,71.658 913.547,46.735 875.877,46.735L633.613,46.735C585.69,46.735 546.839,87.013 546.839,136.606C546.839,186.245 585.69,226.454 633.613,226.454L733.444,226.454L733.444,209.058C700.059,203.029 674.723,172.896 674.723,136.606C674.723,96.005 706.494,63.047 745.745,63.047C780.042,63.047 809.341,85.676 820.206,117.286L857.788,226.454" style="fill:white;fill-rule:nonzero;"/>
    <path id="path2717" d="M1411.46,117.827C1411.46,122.906 1411.5,139.425 1411.5,144.484L1424.45,144.484L1424.45,204.67L1411.5,204.67L1411.5,231.086L1485.5,231.086L1485.5,144.484L1521.47,144.484C1548.3,145.716 1547.67,182.31 1521.81,183.703L1508.27,183.703C1514.52,192.548 1540.08,228.612 1541.83,231.086L1577.94,231.086C1572.11,223.112 1554.58,199.36 1554.58,199.36L1559.92,196.335C1574.97,185.796 1581.56,167.584 1575.01,149.763L1572.99,145.776C1572.97,145.776 1568.83,139.305 1567.93,137.962L1561.71,131.451L1554.01,125.751L1546.17,121.523L1538.13,118.838L1530.09,117.827M1601.71,117.997L1601.71,144.484L1614.66,144.484L1614.66,204.67L1601.71,204.67L1601.71,231.287C1607.78,231.287 1669.66,231.127 1675.71,231.087L1675.71,117.827C1669.66,117.857 1607.7,117.997 1601.71,117.997M1101.13,182.491L1125.86,182.491C1123.44,176.09 1115.78,156.064 1111.36,144.464C1108.13,156.365 1102.73,176.51 1101.13,182.491M1167.48,118.208C1169.06,122.485 1205.71,222.552 1208.89,231.287L1143.12,231.287C1141.69,227.19 1131.35,197.537 1131.35,197.537L1097.01,197.537C1097.01,197.537 1088.46,226.919 1087.23,231.287L1044.42,231.287L1044.42,204.66L1058.34,204.66L1076.01,144.484L1044.42,144.484L1044.42,118.208M1755.03,182.491L1779.57,182.491C1777.23,176.13 1769.9,156.175 1765.63,144.464C1762.29,156.385 1756.68,176.51 1755.03,182.491M1821.14,118.208C1822.75,122.485 1859.91,222.521 1863.16,231.287L1796.8,231.287C1795.39,227.19 1785.05,197.537 1785.05,197.537L1750.9,197.537C1750.9,197.537 1741.81,226.999 1740.52,231.287L1698.29,231.287L1698.29,204.66L1712.24,204.66L1729.9,144.484L1698.29,144.484L1698.29,118.208M1302.94,144.484L1302.94,204.67L1329.14,204.67C1329.14,204.67 1334.22,204.319 1335.34,204.239L1340.82,202.426C1361.03,194.091 1366.64,169.228 1350.64,153.199L1345.79,149.653C1345.79,149.693 1341.89,147.349 1340.82,146.708L1334.94,145.305L1328.66,144.484L1302.94,144.484ZM1338.17,117.827L1343.74,118.218C1375.56,120.993 1402.03,152.508 1394.63,185.957L1393.08,191.337L1393.08,191.296L1391.28,196.335C1382.32,216.501 1366.27,228.482 1344.76,231.087L1229.36,231.087L1229.36,204.67L1242.47,204.67L1242.47,144.484L1229.36,144.484L1229.36,117.827" style="fill:white;fill-rule:nonzero;"/>
    <g>
        <path d="M559.713,350.741C569.019,355.114 576.919,358.179 583.413,359.939C589.907,361.698 596.244,362.578 602.425,362.578C608.676,362.578 613.694,361.525 617.479,359.419C621.264,357.313 623.157,354.607 623.157,351.301C623.157,346.556 616.42,341.224 602.946,335.305C600.793,334.346 599.127,333.599 597.946,333.066L587.737,328.667C577.805,324.348 570.443,319.47 565.651,314.031C560.859,308.593 558.463,302.434 558.463,295.556C558.463,286.225 563.047,278.574 572.214,272.602C581.382,266.63 593.223,263.645 607.738,263.645C613.086,263.645 618.885,264.124 625.136,265.084C631.387,266.044 638.332,267.537 645.971,269.563L645.971,296.756C638.679,293.237 631.769,290.517 625.24,288.598C618.712,286.678 613.156,285.719 608.572,285.719C603.502,285.719 599.509,286.558 596.592,288.238C593.675,289.918 592.216,292.197 592.216,295.076C592.216,297.102 593.084,298.995 594.821,300.755C596.557,302.514 599.161,304.114 602.634,305.553L620.344,313.071C635.137,319.363 645.086,325.175 650.191,330.507C655.295,335.839 657.848,342.157 657.848,349.462C657.848,360.765 652.83,369.896 642.794,376.854C632.758,383.813 619.441,387.292 602.842,387.292C597.217,387.292 591.105,386.838 584.507,385.932C577.909,385.026 570.651,383.613 562.734,381.693L559.713,350.741Z" style="fill:white;fill-rule:nonzero;"/>
        <path d="M718.27,267.564L718.27,331.307C718.27,341.544 720.718,349.208 725.615,354.3C730.511,359.392 737.925,361.938 747.857,361.938C757.441,361.938 764.751,359.566 769.786,354.82C774.821,350.075 777.339,343.17 777.339,334.106L777.339,267.564L809.529,267.564L809.529,334.106C809.529,350.848 803.938,363.898 792.757,373.255C781.575,382.613 766.053,387.292 746.19,387.292C726.118,387.292 710.509,382.653 699.362,373.375C688.215,364.098 682.642,351.061 682.642,334.266L682.642,267.564L718.27,267.564Z" style="fill:white;fill-rule:nonzero;"/>
        <path d="M883.599,288.838L878.703,288.838L878.703,319.79L885.266,319.79C894.364,319.79 901.309,318.443 906.101,315.751C910.894,313.058 913.29,309.179 913.29,304.114C913.29,298.835 910.928,294.97 906.206,292.517C901.483,290.064 893.947,288.838 883.599,288.838ZM842.658,383.533L842.658,267.564L881.516,267.564C893.461,267.564 902.941,268.23 909.956,269.563C916.971,270.896 923.186,273.135 928.604,276.281C934.229,279.427 938.587,283.359 941.678,288.078C944.768,292.797 946.314,297.795 946.314,303.074C946.314,314.804 940.879,324.108 930.01,330.987C919.141,337.865 904.4,341.304 885.787,341.304C883.842,341.304 882.384,341.291 881.411,341.264C880.439,341.237 879.536,341.197 878.703,341.144L878.703,383.533L842.658,383.533Z" style="fill:white;fill-rule:nonzero;"/>
        <path d="M968.712,383.533L968.712,267.564L1061.74,267.564L1061.74,291.477L1003.72,291.477L1003.72,312.432L1053.41,312.432L1053.41,336.185L1003.72,336.185L1003.72,359.139L1062.58,359.139L1062.58,383.533L968.712,383.533Z" style="fill:white;fill-rule:nonzero;"/>
        <path d="M1131.02,288.678L1125.08,288.678L1125.08,320.829L1132.69,320.829C1141.78,320.829 1148.73,319.416 1153.52,316.59C1158.31,313.765 1160.71,309.712 1160.71,304.434C1160.71,298.889 1158.38,294.876 1153.73,292.397C1149.08,289.918 1141.51,288.678 1131.02,288.678ZM1090.08,383.533L1090.08,267.564L1128.94,267.564C1141.37,267.564 1151,268.19 1157.85,269.443C1164.69,270.696 1170.75,272.789 1176.02,275.721C1181.65,278.814 1186.01,282.64 1189.1,287.198C1192.19,291.757 1193.73,296.569 1193.73,301.634C1193.73,308.939 1191.32,315.337 1186.49,320.829C1181.67,326.321 1174.7,330.613 1165.61,333.706L1211.65,383.533L1170.5,383.533L1130.19,338.025L1125.08,338.025L1125.08,383.533L1090.08,383.533Z" style="fill:white;fill-rule:nonzero;"/>
        <path d="M1219.15,350.741C1228.46,355.114 1236.36,358.179 1242.85,359.939C1249.35,361.698 1255.68,362.578 1261.87,362.578C1268.12,362.578 1273.13,361.525 1276.92,359.419C1280.7,357.313 1282.6,354.607 1282.6,351.301C1282.6,346.556 1275.86,341.224 1262.39,335.305C1260.23,334.346 1258.57,333.599 1257.39,333.066L1247.18,328.667C1237.25,324.348 1229.88,319.47 1225.09,314.031C1220.3,308.593 1217.9,302.434 1217.9,295.556C1217.9,286.225 1222.49,278.574 1231.65,272.602C1240.82,266.63 1252.66,263.645 1267.18,263.645C1272.53,263.645 1278.33,264.124 1284.58,265.084C1290.83,266.044 1297.77,267.537 1305.41,269.563L1305.41,296.756C1298.12,293.237 1291.21,290.517 1284.68,288.598C1278.15,286.678 1272.6,285.719 1268.01,285.719C1262.94,285.719 1258.95,286.558 1256.03,288.238C1253.12,289.918 1251.66,292.197 1251.66,295.076C1251.66,297.102 1252.53,298.995 1254.26,300.755C1256,302.514 1258.6,304.114 1262.07,305.553L1279.78,313.071C1294.58,319.363 1304.53,325.175 1309.63,330.507C1314.74,335.839 1317.29,342.157 1317.29,349.462C1317.29,360.765 1312.27,369.896 1302.23,376.854C1292.2,383.813 1278.88,387.292 1262.28,387.292C1256.66,387.292 1250.55,386.838 1243.95,385.932C1237.35,385.026 1230.09,383.613 1222.17,381.693L1219.15,350.741Z" style="fill:white;fill-rule:nonzero;"/>
        <path d="M1371.25,325.548C1371.25,335.625 1375.09,344.063 1382.76,350.861C1390.44,357.66 1399.9,361.059 1411.15,361.059C1422.47,361.059 1431.95,357.673 1439.59,350.901C1447.23,344.13 1451.05,335.679 1451.05,325.548C1451.05,315.364 1447.23,306.873 1439.59,300.075C1431.95,293.277 1422.47,289.878 1411.15,289.878C1399.9,289.878 1390.44,293.277 1382.76,300.075C1375.09,306.873 1371.25,315.364 1371.25,325.548ZM1334.16,325.548C1334.16,316.964 1336.09,308.926 1339.95,301.435C1343.8,293.943 1349.48,287.238 1356.98,281.32C1364.06,275.668 1372.29,271.336 1381.67,268.323C1391.05,265.311 1400.87,263.805 1411.15,263.805C1421.43,263.805 1431.28,265.324 1440.69,268.363C1450.1,271.403 1458.45,275.775 1465.74,281.48C1473.1,287.185 1478.67,293.783 1482.46,301.275C1486.25,308.766 1488.14,316.857 1488.14,325.548C1488.14,332.799 1486.82,339.624 1484.18,346.023C1481.54,352.421 1477.62,358.259 1472.41,363.538C1465.05,371.056 1456,376.894 1445.27,381.053C1434.54,385.212 1423.17,387.292 1411.15,387.292C1400.94,387.292 1391.17,385.772 1381.83,382.733C1372.48,379.694 1364.2,375.321 1356.98,369.616C1349.48,363.698 1343.8,357.02 1339.95,349.582C1336.09,342.144 1334.16,334.132 1334.16,325.548Z" style="fill:white;fill-rule:nonzero;"/>
        <path d="M1513.35,383.533L1513.35,263.805L1516.79,263.805L1610.86,331.466L1610.86,267.564L1644.09,267.564L1644.09,387.931L1640.97,387.931L1546.58,320.269L1546.58,383.533L1513.35,383.533Z" style="fill:white;fill-rule:nonzero;"/>
        <rect x="1679.1" y="267.564" width="36.045" height="115.969" style="fill:white;fill-rule:nonzero;"/>
        <path d="M1861.92,304.274C1855.4,299.102 1848.78,295.263 1842.08,292.757C1835.38,290.251 1828.35,288.998 1820.98,288.998C1808.2,288.998 1797.75,292.384 1789.63,299.155C1781.5,305.927 1777.44,314.618 1777.44,325.228C1777.44,335.839 1781.47,344.436 1789.52,351.021C1797.58,357.606 1808.07,360.899 1820.98,360.899C1828.62,360.899 1836.25,359.672 1843.85,357.22C1851.45,354.767 1859.04,351.088 1866.61,346.183L1864.32,376.974C1857.86,380.333 1850.8,382.893 1843.12,384.652C1835.45,386.412 1827.48,387.292 1819.21,387.292C1810.32,387.292 1801.8,386.225 1793.64,384.092C1785.48,381.96 1777.96,378.814 1771.08,374.655C1761.36,368.79 1753.91,361.632 1748.74,353.181C1743.56,344.73 1740.98,335.519 1740.98,325.548C1740.98,316.964 1742.89,308.913 1746.7,301.395C1750.53,293.877 1756.08,287.238 1763.37,281.48C1770.74,275.721 1779.24,271.309 1788.9,268.243C1798.55,265.178 1808.73,263.645 1819.42,263.645C1827.89,263.645 1835.99,264.551 1843.69,266.364C1851.4,268.177 1858.77,270.923 1865.78,274.602L1861.92,304.274Z" style="fill:white;fill-rule:nonzero;"/>
    </g>
</svg>
