<?xml version="1.0" encoding="UTF-8" standalone="no"?>
<!DOCTYPE svg PUBLIC "-//W3C//DTD SVG 1.1//EN" "http://www.w3.org/Graphics/SVG/1.1/DTD/svg11.dtd">
<svg width="100%" height="100%" viewBox="0 0 2376 450" version="1.1" xmlns="http://www.w3.org/2000/svg" xmlns:xlink="http://www.w3.org/1999/xlink" xml:space="preserve" xmlns:serif="http://www.serif.com/" style="fill-rule:evenodd;clip-rule:evenodd;stroke-linejoin:round;stroke-miterlimit:2;">
    <path d="M1071.41,141.078C1071.41,86.748 1116.26,60.901 1154.15,60.901C1192.03,60.901 1236.63,86.398 1236.63,141.078C1236.63,195.762 1191.88,221.608 1154.15,221.608C1116.41,221.608 1071.41,195.102 1071.41,141.078ZM1133.16,139.914C1133.16,155.5 1138.45,180.021 1154.15,180.021C1169.84,180.021 1175.01,155.5 1175.01,139.914C1175.01,124.329 1169.71,100.154 1154.15,100.154C1138.58,100.154 1133.16,124.329 1133.16,139.914ZM905.018,124.523L911.489,124.523C918.605,124.523 927.86,124.019 927.86,112.436C927.86,100.856 919.163,100.193 912.168,100.193L905.049,100.193L905.049,124.563L905.018,124.563L905.018,124.523ZM1004.5,209.676L970.727,161.794C1002.92,119.861 982.984,60.901 936.155,60.901L843.798,60.901L844.2,180.994L787.992,60.901L722.931,60.901L647.319,221.608L720.672,221.608L730.174,198.093L783.225,198.093L794.059,221.453L905.018,221.608L905.018,167.779L939.994,221.608L1065.22,221.608L1065.22,60.901L1004.53,60.901L1004.53,209.676L1004.5,209.676ZM745.218,154.992L766.202,154.992L755.895,127.168L745.218,154.992ZM534.781,221.608L538.084,35.102L595.352,34.395L595.352,137.27L640.601,34.395L710.149,34.395L621.073,221.608L534.781,221.608ZM1765.56,221.608L1809.76,60.901L1856.06,60.901L1811.86,221.608L1765.56,221.608ZM1706.69,221.608L1737.42,112.746L1783.6,112.746L1752.99,221.608L1701.42,221.608L1706.69,221.608ZM1740.33,100.154L1751.41,60.901L1797.71,60.901L1786.51,100.312L1740.33,100.154ZM1620.27,60.901L1665.68,60.901L1652.49,112.904C1651.69,116.208 1681.12,85.076 1706.19,120.366C1738.26,165.603 1677.69,261.211 1626.21,212.32L1623.99,221.608L1576.47,221.608L1620.27,60.901ZM1666.08,164.28C1668.06,156.974 1668.18,151.184 1666.48,146.871C1664.9,142.555 1661.75,140.419 1657.26,140.419C1652.77,140.419 1648.41,142.555 1644.6,146.871C1640.64,151.184 1637.73,156.974 1635.9,164.28C1633.92,171.396 1633.8,177.38 1635.38,181.848C1636.95,186.474 1639.99,188.805 1644.6,188.805C1648.96,188.805 1653.3,186.474 1657.26,181.848C1661.34,177.38 1664.25,171.396 1666.11,164.28L1666.08,164.28ZM1506.15,228.058C1475.42,228.371 1450.19,200.892 1462.08,160.278C1473.44,121.843 1497.58,103.458 1538.75,104.275C1558.4,104.625 1580.72,119.004 1583.47,145.2C1588.61,192.732 1554.04,229.185 1506.15,228.058ZM1514.6,190.282C1518.81,190.631 1522.78,188.61 1526.61,184.337C1530.57,180.021 1533.61,174.231 1535.71,166.77C1537.82,159.308 1538.22,153.166 1537.04,148.543C1535.71,143.723 1533.08,141.237 1528.87,140.923C1524.51,140.419 1520.55,142.4 1516.58,146.716C1512.9,151.029 1509.87,156.974 1507.61,164.439C1505.5,171.9 1505.1,178.04 1506.28,182.665C1507.61,187.483 1510.36,189.972 1514.6,190.282ZM1256.87,221.259L1288.94,105.598L1334.59,105.598L1331.28,118.189C1345.67,101.437 1381.82,99.959 1390.52,120.52C1411.91,92.847 1465.98,100.312 1456.11,148.853L1435,221.608L1389.62,221.608C1392.25,211.812 1394.91,202.719 1397.55,193.121C1400.33,183.325 1402.96,173.572 1405.59,163.971C1405.87,163.156 1406.12,161.639 1406.24,160.007C1406.24,158.336 1406.24,156.354 1405.72,154.877C1405.07,152.391 1403.09,151.069 1401.51,150.406C1398.35,149.242 1392.66,151.069 1389.62,156.044C1387.92,159.035 1387.24,160.007 1386.71,162.338L1369.29,221.648L1323.63,221.648L1338.92,166.302C1342.2,147.415 1333.63,147.102 1326.27,151.224C1322.3,154.023 1320.32,160.317 1318.62,165.797L1302.65,221.648L1256.87,221.295L1256.87,221.259Z" style="fill:white;"/>
</svg>
