<?xml version="1.0" encoding="UTF-8" standalone="no"?>
<!DOCTYPE svg PUBLIC "-//W3C//DTD SVG 1.1//EN" "http://www.w3.org/Graphics/SVG/1.1/DTD/svg11.dtd">
<svg width="100%" height="100%" viewBox="0 0 2376 450" version="1.1" xmlns="http://www.w3.org/2000/svg" xmlns:xlink="http://www.w3.org/1999/xlink" xml:space="preserve" xmlns:serif="http://www.serif.com/" style="fill-rule:evenodd;clip-rule:evenodd;stroke-linejoin:round;stroke-miterlimit:2;">
    <path d="M1016.82,132.613C1016.82,79.305 1074.78,53.948 1123.74,53.948C1172.7,53.948 1230.34,78.962 1230.34,132.613C1230.34,186.264 1172.5,211.621 1123.74,211.621C1074.98,211.621 1016.82,185.615 1016.82,132.613ZM1096.62,131.469C1096.62,146.76 1103.46,170.82 1123.74,170.82C1144.02,170.82 1150.7,146.76 1150.7,131.469C1150.7,116.178 1143.86,92.46 1123.74,92.46C1103.62,92.46 1096.62,116.178 1096.62,131.469ZM801.784,116.369L810.144,116.369C819.344,116.369 831.304,115.873 831.304,104.51C831.304,93.147 820.064,92.498 811.024,92.498L801.824,92.498L801.824,116.407L801.784,116.369ZM930.344,199.915L886.704,152.937C928.304,111.793 902.544,53.948 842.024,53.948L722.664,53.948L723.184,171.774L650.544,53.948L566.464,53.948L468.744,211.621L563.544,211.621L575.824,188.552L644.384,188.552L658.384,211.469L801.784,211.621L801.784,158.809L846.984,211.621L1008.82,211.621L1008.82,53.948L930.384,53.948L930.384,199.915L930.344,199.915ZM595.264,146.264L622.384,146.264L609.064,118.962L595.264,146.264ZM323.304,211.621L323.304,27.942L401.584,27.942L401.584,128.876L460.064,27.942L549.944,27.942L434.824,211.621L323.304,211.621ZM1913.9,211.621L1971.02,53.948L2030.86,53.948L1973.74,211.621L1913.9,211.621ZM1837.82,211.621L1877.54,104.815L1937.22,104.815L1897.66,211.621L1831.02,211.621L1837.82,211.621ZM1881.3,92.46L1895.62,53.948L1955.46,53.948L1940.98,92.613L1881.3,92.46ZM1726.14,53.948L1784.82,53.948L1767.78,104.967C1766.74,108.209 1804.78,77.665 1837.18,112.289C1878.62,156.674 1800.34,250.477 1733.82,202.508L1730.94,211.621L1669.54,211.621L1726.14,53.948ZM1785.34,155.377C1787.9,148.209 1788.06,142.527 1785.86,138.294C1783.82,134.062 1779.74,131.965 1773.94,131.965C1768.14,131.965 1762.5,134.062 1757.58,138.294C1752.46,142.527 1748.7,148.209 1746.34,155.377C1743.78,162.355 1743.62,168.228 1745.66,172.613C1747.7,177.15 1751.62,179.438 1757.58,179.438C1763.22,179.438 1768.82,177.15 1773.94,172.613C1779.22,168.228 1782.98,162.355 1785.38,155.377L1785.34,155.377ZM1578.66,217.951C1538.94,218.256 1506.34,191.297 1521.7,151.45C1536.38,113.738 1567.58,95.702 1620.78,96.502C1646.18,96.845 1675.02,110.954 1678.58,136.655C1685.22,183.289 1640.54,219.057 1578.66,217.951ZM1589.58,180.887C1595.02,181.23 1600.14,179.247 1605.1,175.053C1610.22,170.82 1614.14,165.139 1616.86,157.818C1619.58,150.496 1620.1,144.472 1618.58,139.934C1616.86,135.206 1613.46,132.765 1608.02,132.46C1602.38,131.965 1597.26,133.909 1592.14,138.142C1587.38,142.374 1583.46,148.209 1580.54,155.53C1577.82,162.851 1577.3,168.876 1578.82,173.413C1580.54,178.142 1584.1,180.582 1589.58,180.887ZM1256.5,211.278L1297.94,97.799L1356.94,97.799L1352.66,110.153C1371.26,93.719 1417.98,92.27 1429.22,112.441C1456.86,85.292 1526.74,92.613 1513.98,140.239L1486.7,211.621L1428.06,211.621C1431.46,202.012 1434.9,193.089 1438.3,183.671C1441.9,174.062 1445.3,164.491 1448.7,155.072C1449.06,154.271 1449.38,152.784 1449.54,151.183C1449.54,149.543 1449.54,147.598 1448.86,146.149C1448.02,143.709 1445.46,142.413 1443.42,141.764C1439.34,140.62 1431.98,142.413 1428.06,147.293C1425.86,150.229 1424.98,151.183 1424.3,153.471L1401.78,211.659L1342.78,211.659L1362.54,157.36C1366.78,138.828 1355.7,138.523 1346.18,142.565C1341.06,145.311 1338.5,151.488 1336.3,156.864L1315.66,211.659L1256.5,211.316L1256.5,211.278Z" style="fill:rgb(248,248,249);"/>
</svg>
