<?xml version="1.0" encoding="UTF-8" standalone="no"?>
<!DOCTYPE svg PUBLIC "-//W3C//DTD SVG 1.1//EN" "http://www.w3.org/Graphics/SVG/1.1/DTD/svg11.dtd">
<svg width="100%" height="100%" viewBox="0 0 2376 450" version="1.1" xmlns="http://www.w3.org/2000/svg" xmlns:xlink="http://www.w3.org/1999/xlink" xml:space="preserve" xmlns:serif="http://www.serif.com/" style="fill-rule:evenodd;clip-rule:evenodd;stroke-linejoin:round;stroke-miterlimit:2;">
    <path id="path2713" d="M824.726,189.404C824.726,211.998 807.093,230.281 785.219,230.281C763.433,230.281 745.8,211.998 745.8,189.404C745.8,166.832 763.433,148.491 785.219,148.491C807.093,148.491 824.726,166.832 824.726,189.404M998.974,226.454L957.674,106.415C945.696,71.658 913.547,46.735 875.877,46.735L633.613,46.735C585.69,46.735 546.839,87.013 546.839,136.606C546.839,186.245 585.69,226.454 633.613,226.454L733.444,226.454L733.444,209.058C700.059,203.029 674.723,172.896 674.723,136.606C674.723,96.005 706.494,63.047 745.745,63.047C780.042,63.047 809.341,85.676 820.206,117.286L857.788,226.454" style="fill:white;fill-rule:nonzero;"/>
    <path id="path2717" d="M1411.46,117.827C1411.46,122.906 1411.5,139.425 1411.5,144.484L1424.45,144.484L1424.45,204.67L1411.5,204.67L1411.5,231.086L1485.5,231.086L1485.5,144.484L1521.47,144.484C1548.3,145.716 1547.67,182.31 1521.81,183.703L1508.27,183.703C1514.52,192.548 1540.08,228.612 1541.83,231.086L1577.94,231.086C1572.11,223.112 1554.58,199.36 1554.58,199.36L1559.92,196.335C1574.97,185.796 1581.56,167.584 1575.01,149.763L1572.99,145.776C1572.97,145.776 1568.83,139.305 1567.93,137.962L1561.71,131.451L1554.01,125.751L1546.17,121.523L1538.13,118.838L1530.09,117.827M1601.71,117.997L1601.71,144.484L1614.66,144.484L1614.66,204.67L1601.71,204.67L1601.71,231.287C1607.78,231.287 1669.66,231.127 1675.71,231.087L1675.71,117.827C1669.66,117.857 1607.7,117.997 1601.71,117.997M1101.13,182.491L1125.86,182.491C1123.44,176.09 1115.78,156.064 1111.36,144.464C1108.13,156.365 1102.73,176.51 1101.13,182.491M1167.48,118.208C1169.06,122.485 1205.71,222.552 1208.89,231.287L1143.12,231.287C1141.69,227.19 1131.35,197.537 1131.35,197.537L1097.01,197.537C1097.01,197.537 1088.46,226.919 1087.23,231.287L1044.42,231.287L1044.42,204.66L1058.34,204.66L1076.01,144.484L1044.42,144.484L1044.42,118.208M1755.03,182.491L1779.57,182.491C1777.23,176.13 1769.9,156.175 1765.63,144.464C1762.29,156.385 1756.68,176.51 1755.03,182.491M1821.14,118.208C1822.75,122.485 1859.91,222.521 1863.16,231.287L1796.8,231.287C1795.39,227.19 1785.05,197.537 1785.05,197.537L1750.9,197.537C1750.9,197.537 1741.81,226.999 1740.52,231.287L1698.29,231.287L1698.29,204.66L1712.24,204.66L1729.9,144.484L1698.29,144.484L1698.29,118.208M1302.94,144.484L1302.94,204.67L1329.14,204.67C1329.14,204.67 1334.22,204.319 1335.34,204.239L1340.82,202.426C1361.03,194.091 1366.64,169.228 1350.64,153.199L1345.79,149.653C1345.79,149.693 1341.89,147.349 1340.82,146.708L1334.94,145.305L1328.66,144.484L1302.94,144.484ZM1338.17,117.827L1343.74,118.218C1375.56,120.993 1402.03,152.508 1394.63,185.957L1393.08,191.337L1393.08,191.296L1391.28,196.335C1382.32,216.501 1366.27,228.482 1344.76,231.087L1229.36,231.087L1229.36,204.67L1242.47,204.67L1242.47,144.484L1229.36,144.484L1229.36,117.827" style="fill:white;fill-rule:nonzero;"/>
</svg>
