<?xml version="1.0" encoding="UTF-8" standalone="no"?>
<!DOCTYPE svg PUBLIC "-//W3C//DTD SVG 1.1//EN" "http://www.w3.org/Graphics/SVG/1.1/DTD/svg11.dtd">
<svg width="100%" height="100%" viewBox="0 0 1188 225" version="1.1" xmlns="http://www.w3.org/2000/svg" xmlns:xlink="http://www.w3.org/1999/xlink" xml:space="preserve" xmlns:serif="http://www.serif.com/" style="fill-rule:evenodd;clip-rule:evenodd;stroke-linejoin:round;stroke-miterlimit:2;">
    <path d="M669.367,59.009C669.367,31.049 698.347,17.749 722.827,17.749C747.307,17.749 776.127,30.869 776.127,59.009C776.127,87.149 747.207,100.449 722.827,100.449C698.447,100.449 669.367,86.809 669.367,59.009ZM709.267,58.409C709.267,66.429 712.687,79.049 722.827,79.049C732.967,79.049 736.307,66.429 736.307,58.409C736.307,50.389 732.887,37.949 722.827,37.949C712.767,37.949 709.267,50.389 709.267,58.409ZM561.847,50.489L566.027,50.489C570.627,50.489 576.607,50.229 576.607,44.269C576.607,38.309 570.987,37.969 566.467,37.969L561.867,37.969L561.867,50.509L561.847,50.489ZM626.127,94.309L604.307,69.669C625.107,48.089 612.227,17.749 581.967,17.749L522.287,17.749L522.547,79.549L486.227,17.749L444.187,17.749L395.327,100.449L442.727,100.449L448.867,88.349L483.147,88.349L490.147,100.369L561.847,100.449L561.847,72.749L584.447,100.449L665.367,100.449L665.367,17.749L626.147,17.749L626.147,94.309L626.127,94.309ZM458.587,66.169L472.147,66.169L465.487,51.849L458.587,66.169ZM322.607,100.449L322.607,4.109L361.747,4.109L361.747,57.049L390.987,4.109L435.927,4.109L378.367,100.449L322.607,100.449ZM1117.91,100.449L1146.47,17.749L1176.39,17.749L1147.83,100.449L1117.91,100.449ZM1079.87,100.449L1099.73,44.429L1129.57,44.429L1109.79,100.449L1076.47,100.449L1079.87,100.449ZM1101.61,37.949L1108.77,17.749L1138.69,17.749L1131.45,38.029L1101.61,37.949ZM1024.03,17.749L1053.37,17.749L1044.85,44.509C1044.33,46.209 1063.35,30.189 1079.55,48.349C1100.27,71.629 1061.13,120.829 1027.87,95.669L1026.43,100.449L995.727,100.449L1024.03,17.749ZM1053.63,70.949C1054.91,67.189 1054.99,64.209 1053.89,61.989C1052.87,59.769 1050.83,58.669 1047.93,58.669C1045.03,58.669 1042.21,59.769 1039.75,61.989C1037.19,64.209 1035.31,67.189 1034.13,70.949C1032.85,74.609 1032.77,77.689 1033.79,79.989C1034.81,82.369 1036.77,83.569 1039.75,83.569C1042.57,83.569 1045.37,82.369 1047.93,79.989C1050.57,77.689 1052.45,74.609 1053.65,70.949L1053.63,70.949ZM950.287,103.769C930.427,103.929 914.127,89.789 921.807,68.889C929.147,49.109 944.747,39.649 971.347,40.069C984.047,40.249 998.467,47.649 1000.25,61.129C1003.57,85.589 981.227,104.349 950.287,103.769ZM955.747,84.329C958.467,84.509 961.027,83.469 963.507,81.269C966.067,79.049 968.027,76.069 969.387,72.229C970.747,68.389 971.007,65.229 970.247,62.849C969.387,60.369 967.687,59.089 964.967,58.929C962.147,58.669 959.587,59.689 957.027,61.909C954.647,64.129 952.687,67.189 951.227,71.029C949.867,74.869 949.607,78.029 950.367,80.409C951.227,82.889 953.007,84.169 955.747,84.329ZM789.207,100.269L809.927,40.749L839.427,40.749L837.287,47.229C846.587,38.609 869.947,37.849 875.567,48.429C889.387,34.189 924.327,38.029 917.947,63.009L904.307,100.449L874.987,100.449C876.687,95.409 878.407,90.729 880.107,85.789C881.907,80.749 883.607,75.729 885.307,70.789C885.487,70.369 885.647,69.589 885.727,68.749C885.727,67.889 885.727,66.869 885.387,66.109C884.967,64.829 883.687,64.149 882.667,63.809C880.627,63.209 876.947,64.149 874.987,66.709C873.887,68.249 873.447,68.749 873.107,69.949L861.847,100.469L832.347,100.469L842.227,71.989C844.347,62.269 838.807,62.109 834.047,64.229C831.487,65.669 830.207,68.909 829.107,71.729L818.787,100.469L789.207,100.289L789.207,100.269Z" style="fill:rgb(248,248,249);"/>
</svg>
