<?xml version="1.0" encoding="UTF-8" standalone="no"?>
<!DOCTYPE svg PUBLIC "-//W3C//DTD SVG 1.1//EN" "http://www.w3.org/Graphics/SVG/1.1/DTD/svg11.dtd">
<svg width="100%" height="100%" viewBox="0 0 1140 216" version="1.1" xmlns="http://www.w3.org/2000/svg" xmlns:xlink="http://www.w3.org/1999/xlink" xml:space="preserve" xmlns:serif="http://www.serif.com/" style="fill-rule:evenodd;clip-rule:evenodd;stroke-linejoin:round;stroke-miterlimit:2;">
    <path id="path2713" d="M248.876,90.153C248.876,102.791 234.236,113.017 216.074,113.017C197.986,113.017 183.345,102.791 183.345,90.153C183.345,77.529 197.986,67.27 216.074,67.27C234.236,67.27 248.876,77.529 248.876,90.153M393.552,110.876L359.262,43.736C349.316,24.296 322.624,10.357 291.346,10.357L90.197,10.357C50.407,10.357 18.15,32.885 18.15,60.623C18.15,88.387 50.407,110.876 90.197,110.876L173.086,110.876L173.086,101.147C145.367,97.774 124.33,80.92 124.33,60.623C124.33,37.914 150.709,19.48 183.299,19.48C211.776,19.48 236.103,32.137 245.123,49.816L276.327,110.876" style="fill:rgb(179,77,113);fill-rule:nonzero;"/>
    <path id="path2717" d="M736.034,50.119C736.034,52.96 736.066,62.199 736.066,65.029L746.82,65.029L746.82,98.692L736.066,98.692L736.066,113.467L797.506,113.467L797.506,65.029L827.375,65.029C849.654,65.718 849.132,86.186 827.656,86.965L816.412,86.965C821.6,91.912 842.827,112.083 844.281,113.467L874.262,113.467C869.419,109.007 854.866,95.722 854.866,95.722L859.299,94.03C871.796,88.136 877.265,77.949 871.828,67.982L870.15,65.752C870.134,65.752 866.696,62.132 865.949,61.381L860.785,57.739L854.392,54.551L847.887,52.187L841.205,50.685L834.531,50.119M893.995,50.215L893.995,65.029L904.749,65.029L904.749,98.692L893.995,98.692L893.995,113.579C899.038,113.579 950.415,113.49 955.435,113.467L955.435,50.119C950.415,50.136 898.974,50.215 893.995,50.215M478.372,86.287L498.9,86.287C496.892,82.707 490.532,71.506 486.861,65.018C484.187,71.674 479.697,82.942 478.372,86.287M533.459,50.332C534.776,52.725 565.199,108.694 567.841,113.579L513.236,113.579C512.048,111.288 503.462,94.703 503.462,94.703L474.951,94.703C474.951,94.703 467.851,111.136 466.831,113.579L431.284,113.579L431.284,98.687L442.841,98.687L457.515,65.029L431.284,65.029L431.284,50.332M1021.3,86.287L1041.67,86.287C1039.73,82.729 1033.64,71.568 1030.09,65.018C1027.32,71.685 1022.67,82.942 1021.3,86.287M1076.19,50.332C1077.53,52.725 1108.38,108.677 1111.07,113.579L1055.98,113.579C1054.81,111.288 1046.22,94.703 1046.22,94.703L1017.87,94.703C1017.87,94.703 1010.32,111.181 1009.25,113.579L974.188,113.579L974.188,98.687L985.769,98.687L1000.43,65.029L974.188,65.029L974.188,50.332M645.93,65.029L645.93,98.692L667.687,98.692C667.687,98.692 671.904,98.496 672.835,98.451L677.381,97.437C694.159,92.775 698.825,78.869 685.533,69.904L681.509,67.92C681.509,67.943 678.273,66.632 677.381,66.273L672.498,65.489L667.286,65.029L645.93,65.029ZM675.181,50.119L679.807,50.338C706.23,51.89 728.204,69.517 722.06,88.226L720.775,91.234L720.775,91.212L719.281,94.03C711.836,105.309 698.512,112.011 680.65,113.467L584.836,113.467L584.836,98.692L595.726,98.692L595.726,65.029L584.836,65.029L584.836,50.119" style="fill:rgb(77,89,179);fill-rule:nonzero;"/>
    <g>
        <path d="M28.839,180.392C36.566,182.838 43.125,184.552 48.517,185.537C53.909,186.521 59.17,187.013 64.303,187.013C69.492,187.013 73.659,186.424 76.801,185.246C79.944,184.068 81.516,182.554 81.516,180.705C81.516,178.051 75.922,175.069 64.735,171.759C62.948,171.222 61.564,170.804 60.583,170.506L52.107,168.046C43.861,165.63 37.748,162.901 33.769,159.86C29.79,156.818 27.801,153.373 27.801,149.526C27.801,144.307 31.607,140.028 39.219,136.688C46.83,133.348 56.662,131.678 68.714,131.678C73.154,131.678 77.969,131.946 83.159,132.483C88.349,133.02 94.115,133.855 100.458,134.988L100.458,150.197C94.404,148.229 88.666,146.708 83.245,145.634C77.825,144.561 73.212,144.024 69.406,144.024C65.196,144.024 61.881,144.494 59.459,145.433C57.037,146.372 55.826,147.647 55.826,149.258C55.826,150.391 56.547,151.45 57.988,152.434C59.43,153.418 61.592,154.313 64.476,155.118L79.18,159.323C91.463,162.842 99.723,166.092 103.961,169.075C108.2,172.057 110.319,175.591 110.319,179.677C110.319,185.999 106.153,191.106 97.82,194.998C89.488,198.89 78.43,200.835 64.649,200.835C59.978,200.835 54.903,200.582 49.425,200.075C43.947,199.568 37.921,198.778 31.347,197.704L28.839,180.392Z" style="fill:rgb(77,89,179);fill-rule:nonzero;"/>
        <path d="M160.487,133.87L160.487,169.522C160.487,175.248 162.52,179.535 166.585,182.383C170.651,185.231 176.806,186.655 185.052,186.655C193.01,186.655 199.079,185.328 203.26,182.674C207.441,180.019 209.531,176.158 209.531,171.088L209.531,133.87L236.258,133.87L236.258,171.088C236.258,180.452 231.616,187.751 222.332,192.985C213.048,198.219 200.16,200.835 183.668,200.835C167.003,200.835 154.043,198.241 144.788,193.052C135.533,187.863 130.905,180.571 130.905,171.177L130.905,133.87L160.487,133.87Z" style="fill:rgb(77,89,179);fill-rule:nonzero;"/>
        <path d="M297.758,145.769L293.692,145.769L293.692,163.08L299.142,163.08C306.696,163.08 312.462,162.327 316.441,160.821C320.42,159.315 322.409,157.146 322.409,154.313C322.409,151.36 320.449,149.198 316.528,147.826C312.606,146.455 306.35,145.769 297.758,145.769ZM263.765,198.733L263.765,133.87L296.028,133.87C305.946,133.87 313.817,134.242 319.642,134.988C325.466,135.733 330.627,136.986 335.124,138.745C339.795,140.505 343.414,142.704 345.98,145.344C348.546,147.983 349.829,150.779 349.829,153.731C349.829,160.292 345.317,165.496 336.292,169.343C327.268,173.19 315.028,175.114 299.574,175.114C297.96,175.114 296.749,175.106 295.941,175.091C295.134,175.076 294.384,175.054 293.692,175.024L293.692,198.733L263.765,198.733Z" style="fill:rgb(77,89,179);fill-rule:nonzero;"/>
        <path d="M368.426,198.733L368.426,133.87L445.668,133.87L445.668,147.245L397.489,147.245L397.489,158.965L438.748,158.965L438.748,172.251L397.489,172.251L397.489,185.089L446.359,185.089L446.359,198.733L368.426,198.733Z" style="fill:rgb(77,89,179);fill-rule:nonzero;"/>
        <path d="M503.188,145.679L498.258,145.679L498.258,163.662L504.572,163.662C512.126,163.662 517.892,162.872 521.871,161.291C525.85,159.711 527.84,157.444 527.84,154.492C527.84,151.39 525.908,149.146 522.044,147.759C518.181,146.372 511.895,145.679 503.188,145.679ZM469.195,198.733L469.195,133.87L501.458,133.87C511.78,133.87 519.781,134.22 525.461,134.921C531.141,135.622 536.172,136.792 540.555,138.432C545.225,140.162 548.844,142.302 551.41,144.852C553.976,147.401 555.259,150.093 555.259,152.926C555.259,157.012 553.255,160.59 549.248,163.662C545.24,166.734 539.459,169.134 531.905,170.864L570.137,198.733L535.97,198.733L502.496,173.28L498.258,173.28L498.258,198.733L469.195,198.733Z" style="fill:rgb(77,89,179);fill-rule:nonzero;"/>
        <path d="M576.364,180.392C584.091,182.838 590.651,184.552 596.042,185.537C601.434,186.521 606.696,187.013 611.828,187.013C617.018,187.013 621.184,186.424 624.327,185.246C627.47,184.068 629.041,182.554 629.041,180.705C629.041,178.051 623.448,175.069 612.261,171.759C610.473,171.222 609.089,170.804 608.109,170.506L599.632,168.046C591.386,165.63 585.274,162.901 581.295,159.86C577.316,156.818 575.326,153.373 575.326,149.526C575.326,144.307 579.132,140.028 586.744,136.688C594.356,133.348 604.188,131.678 616.239,131.678C620.68,131.678 625.495,131.946 630.684,132.483C635.874,133.02 641.641,133.855 647.984,134.988L647.984,150.197C641.929,148.229 636.191,146.708 630.771,145.634C625.35,144.561 620.737,144.024 616.931,144.024C612.722,144.024 609.406,144.494 606.984,145.433C604.562,146.372 603.351,147.647 603.351,149.258C603.351,150.391 604.072,151.45 605.514,152.434C606.955,153.418 609.118,154.313 612.001,155.118L626.706,159.323C638.988,162.842 647.249,166.092 651.487,169.075C655.725,172.057 657.844,175.591 657.844,179.677C657.844,185.999 653.678,191.106 645.346,194.998C637.013,198.89 625.956,200.835 612.174,200.835C607.503,200.835 602.429,200.582 596.951,200.075C591.472,199.568 585.447,198.778 578.873,197.704L576.364,180.392Z" style="fill:rgb(77,89,179);fill-rule:nonzero;"/>
        <path d="M702.65,166.301C702.65,171.938 705.836,176.657 712.208,180.459C718.58,184.262 726.436,186.163 735.778,186.163C745.177,186.163 753.049,184.269 759.392,180.482C765.735,176.694 768.906,171.967 768.906,166.301C768.906,160.605 765.735,155.856 759.392,152.054C753.049,148.251 745.177,146.35 735.778,146.35C726.436,146.35 718.58,148.251 712.208,152.054C705.836,155.856 702.65,160.605 702.65,166.301ZM671.857,166.301C671.857,161.5 673.457,157.004 676.658,152.814C679.858,148.624 684.572,144.874 690.8,141.564C696.682,138.402 703.515,135.979 711.3,134.294C719.084,132.61 727.244,131.767 735.778,131.767C744.313,131.767 752.486,132.617 760.3,134.317C768.114,136.017 775.048,138.462 781.103,141.653C787.215,144.844 791.843,148.535 794.985,152.725C798.128,156.915 799.699,161.44 799.699,166.301C799.699,170.357 798.604,174.174 796.412,177.753C794.221,181.332 790.963,184.597 786.638,187.55C780.526,191.755 773.015,195.02 764.106,197.346C755.197,199.672 745.754,200.835 735.778,200.835C727.301,200.835 719.185,199.986 711.429,198.286C703.673,196.586 696.797,194.14 690.8,190.949C684.572,187.639 679.858,183.904 676.658,179.744C673.457,175.583 671.857,171.103 671.857,166.301Z" style="fill:rgb(77,89,179);fill-rule:nonzero;"/>
        <path d="M820.632,198.733L820.632,131.767L823.486,131.767L901.593,169.612L901.593,133.87L929.185,133.87L929.185,201.193L926.59,201.193L848.224,163.349L848.224,198.733L820.632,198.733Z" style="fill:rgb(77,89,179);fill-rule:nonzero;"/>
        <rect x="958.248" y="133.87" width="29.928" height="64.863" style="fill:rgb(77,89,179);fill-rule:nonzero;"/>
        <path d="M1110.05,154.402C1104.63,151.509 1099.14,149.362 1093.57,147.961C1088.01,146.559 1082.17,145.858 1076.06,145.858C1065.45,145.858 1056.77,147.752 1050.02,151.539C1043.28,155.327 1039.9,160.188 1039.9,166.122C1039.9,172.057 1043.25,176.866 1049.93,180.549C1056.62,184.232 1065.33,186.073 1076.06,186.073C1082.4,186.073 1088.73,185.388 1095.04,184.016C1101.36,182.644 1107.66,180.586 1113.94,177.842L1112.04,195.065C1106.68,196.944 1100.81,198.375 1094.44,199.359C1088.07,200.343 1081.45,200.835 1074.59,200.835C1067.2,200.835 1060.13,200.239 1053.35,199.046C1046.58,197.853 1040.33,196.094 1034.62,193.768C1026.55,190.487 1020.37,186.483 1016.07,181.757C1011.77,177.03 1009.63,171.878 1009.63,166.301C1009.63,161.5 1011.21,156.997 1014.38,152.792C1017.56,148.587 1022.17,144.874 1028.22,141.653C1034.34,138.432 1041.4,135.965 1049.42,134.25C1057.43,132.535 1065.88,131.678 1074.76,131.678C1081.8,131.678 1088.51,132.185 1094.91,133.199C1101.31,134.212 1107.43,135.748 1113.25,137.806L1110.05,154.402Z" style="fill:rgb(77,89,179);fill-rule:nonzero;"/>
    </g>
</svg>
