<?xml version="1.0" encoding="UTF-8" standalone="no"?><!DOCTYPE svg PUBLIC "-//W3C//DTD SVG 1.1//EN" "http://www.w3.org/Graphics/SVG/1.1/DTD/svg11.dtd"><svg width="100%" height="100%" viewBox="0 0 169 32" version="1.1" xmlns="http://www.w3.org/2000/svg" xmlns:xlink="http://www.w3.org/1999/xlink" xml:space="preserve" xmlns:serif="http://www.serif.com/" style="fill-rule:evenodd;clip-rule:evenodd;stroke-linejoin:round;stroke-miterlimit:2;"><path d="M74.766,8.994c0,-3.975 3.759,-5.867 6.935,-5.867c3.175,0 6.914,1.866 6.914,5.867c0,4.001 -3.751,5.893 -6.914,5.893c-3.163,0 -6.935,-1.94 -6.935,-5.893Zm5.176,-0.085c0,1.14 0.444,2.935 1.759,2.935c1.315,0 1.749,-1.794 1.749,-2.935c0,-1.14 -0.444,-2.909 -1.749,-2.909c-1.305,0 -1.759,1.769 -1.759,2.909Zm-19.123,-1.126l0.542,0c0.596,0 1.372,-0.037 1.372,-0.884c0,-0.847 -0.729,-0.896 -1.315,-0.896l-0.597,0l0,1.783l-0.003,0l0,-0.003Zm8.338,6.231l-2.831,-3.504c2.698,-3.068 1.027,-7.383 -2.898,-7.383l-7.741,0l0.034,8.787l-4.711,-8.787l-5.453,-0l-6.338,11.759l6.148,-0l0.796,-1.721l4.447,0l0.908,1.709l9.3,0.011l0,-3.939l2.932,3.939l10.496,0l0,-11.759l-5.087,0l0,10.886l-0.003,-0Zm-21.732,-4.001l1.759,0l-0.864,-2.036l-0.895,2.036Zm-17.639,4.874l0.277,-13.647l4.8,-0.052l0,7.528l3.793,-7.528l5.829,0l-7.466,13.699l-7.233,0Zm103.161,0l3.705,-11.759l3.881,0l-3.705,11.759l-3.881,-0Zm-4.934,0l2.576,-7.966l3.871,0l-2.566,7.966l-4.322,0l0.441,0Zm2.82,-8.887l0.929,-2.872l3.881,0l-0.939,2.884l-3.871,-0.012Zm-10.063,-2.872l3.806,0l-1.105,3.805c-0.067,0.242 2.4,-2.036 4.501,0.546c2.688,3.31 -2.389,10.306 -6.704,6.729l-0.187,0.68l-3.982,0l3.671,-11.759Zm3.84,7.564c0.166,-0.535 0.176,-0.958 0.034,-1.274c-0.132,-0.316 -0.397,-0.472 -0.773,-0.472c-0.376,0 -0.742,0.156 -1.061,0.472c-0.332,0.316 -0.576,0.739 -0.729,1.274c-0.166,0.521 -0.176,0.959 -0.044,1.285c0.132,0.339 0.387,0.509 0.773,0.509c0.366,0 0.729,-0.171 1.061,-0.509c0.343,-0.327 0.586,-0.765 0.742,-1.285l-0.003,0Zm-13.405,4.667c-2.576,0.023 -4.691,-1.988 -3.694,-4.96c0.952,-2.812 2.976,-4.158 6.426,-4.098c1.647,0.025 3.518,1.078 3.749,2.995c0.431,3.478 -2.467,6.145 -6.48,6.063Zm0.708,-2.764c0.353,0.025 0.685,-0.122 1.007,-0.435c0.332,-0.316 0.586,-0.739 0.763,-1.285c0.176,-0.546 0.21,-0.996 0.112,-1.334c-0.112,-0.353 -0.332,-0.535 -0.685,-0.557c-0.366,-0.037 -0.698,0.108 -1.03,0.424c-0.309,0.316 -0.563,0.751 -0.752,1.297c-0.176,0.546 -0.21,0.995 -0.112,1.334c0.112,0.352 0.343,0.535 0.698,0.557Zm-21.603,2.267l2.688,-8.463l3.827,-0l-0.278,0.921c1.206,-1.226 4.236,-1.334 4.965,0.171c1.793,-2.025 6.325,-1.479 5.497,2.073l-1.769,5.324l-3.803,0c0.22,-0.717 0.444,-1.382 0.664,-2.084c0.233,-0.717 0.454,-1.431 0.674,-2.133c0.024,-0.06 0.044,-0.171 0.055,-0.29c0,-0.122 0,-0.267 -0.044,-0.375c-0.054,-0.182 -0.22,-0.279 -0.353,-0.327c-0.265,-0.085 -0.742,0.049 -0.996,0.413c-0.143,0.219 -0.2,0.29 -0.244,0.461l-1.461,4.34l-3.826,0l1.281,-4.05c0.275,-1.382 -0.444,-1.405 -1.061,-1.103c-0.332,0.205 -0.498,0.665 -0.641,1.066l-1.339,4.087l-3.837,-0.026l0,-0.003Z" style="fill:#fff;"/><path d="M27.541,17.676l1.88,1.916l41.07,1.497l10.171,10.648l5.857,0l10.147,-10.637l41.131,-1.507l1.868,-1.927l-43.878,0.732l-9.906,7.741l-4.579,0l-9.918,-7.741l-43.842,-0.721Z" style="fill:#fff;fill-rule:nonzero;"/></svg>