<?xml version="1.0" encoding="UTF-8" standalone="no"?>
<!DOCTYPE svg PUBLIC "-//W3C//DTD SVG 1.1//EN" "http://www.w3.org/Graphics/SVG/1.1/DTD/svg11.dtd">
<svg width="100%" height="100%" viewBox="0 0 1140 216" version="1.1" xmlns="http://www.w3.org/2000/svg" xmlns:xlink="http://www.w3.org/1999/xlink" xml:space="preserve" xmlns:serif="http://www.serif.com/" style="fill-rule:evenodd;clip-rule:evenodd;stroke-linejoin:round;stroke-miterlimit:2;">
    <path id="path2713" d="M283.176,87.924C283.176,101.464 269.476,112.421 252.481,112.421C235.555,112.421 221.855,101.464 221.855,87.924C221.855,74.397 235.555,63.406 252.481,63.406C269.476,63.406 283.176,74.397 283.176,87.924M418.559,110.128L386.471,38.19C377.165,17.361 352.187,2.425 322.919,2.425L134.69,2.425C97.456,2.425 67.271,26.563 67.271,56.283C67.271,86.031 97.456,110.128 134.69,110.128L212.255,110.128L212.255,99.703C186.316,96.09 166.631,78.031 166.631,56.283C166.631,31.952 191.315,12.2 221.812,12.2C248.459,12.2 271.223,25.762 279.665,44.705L308.864,110.128" style="fill:white;fill-rule:nonzero;"/>
    <path id="path2717" d="M739.042,45.029C739.042,48.073 739.072,57.972 739.072,61.004L749.135,61.004L749.135,97.073L739.072,97.073L739.072,112.904L796.565,112.904L796.565,61.004L824.515,61.004C845.363,61.742 844.874,83.673 824.778,84.507L814.256,84.507C819.111,89.809 838.975,111.421 840.335,112.904L868.39,112.904C863.858,108.125 850.24,93.891 850.24,93.891L854.389,92.078C866.083,85.762 871.201,74.848 866.113,64.168L864.542,61.778C864.527,61.778 861.31,57.9 860.612,57.096L855.779,53.194L849.797,49.778L843.709,47.244L837.456,45.635L831.211,45.029M886.856,45.131L886.856,61.004L896.919,61.004L896.919,97.073L886.856,97.073L886.856,113.024C891.575,113.024 939.652,112.928 944.349,112.904L944.349,45.029C939.652,45.047 891.515,45.131 886.856,45.131M497.931,83.781L517.14,83.781C515.261,79.945 509.309,67.944 505.874,60.992C503.372,68.124 499.171,80.197 497.931,83.781M549.479,45.257C550.712,47.821 579.18,107.789 581.653,113.024L530.555,113.024C529.443,110.569 521.409,92.798 521.409,92.798L494.729,92.798C494.729,92.798 488.085,110.407 487.131,113.024L453.868,113.024L453.868,97.067L464.682,97.067L478.413,61.004L453.868,61.004L453.868,45.257M1005.98,83.781L1025.05,83.781C1023.23,79.969 1017.53,68.01 1014.21,60.992C1011.62,68.136 1007.26,80.197 1005.98,83.781M1057.34,45.257C1058.6,47.821 1087.47,107.771 1089.99,113.024L1038.43,113.024C1037.34,110.569 1029.3,92.798 1029.3,92.798L1002.77,92.798C1002.77,92.798 995.709,110.455 994.71,113.024L961.897,113.024L961.897,97.067L972.735,97.067L986.458,61.004L961.897,61.004L961.897,45.257M654.726,61.004L654.726,97.073L675.085,97.073C675.085,97.073 679.031,96.863 679.902,96.815L684.156,95.728C699.856,90.733 704.222,75.833 691.784,66.227L688.019,64.102C688.019,64.126 684.99,62.721 684.156,62.337L679.587,61.497L674.709,61.004L654.726,61.004ZM682.097,45.029L686.426,45.263C711.152,46.926 731.714,65.813 725.965,85.858L724.762,89.082L724.762,89.058L723.364,92.078C716.398,104.163 703.929,111.343 687.215,112.904L597.556,112.904L597.556,97.073L607.747,97.073L607.747,61.004L597.556,61.004L597.556,45.029" style="fill:white;fill-rule:nonzero;"/>
    <g>
        <path d="M77.274,184.611C84.504,187.232 90.642,189.069 95.688,190.123C100.733,191.178 105.657,191.705 110.459,191.705C115.316,191.705 119.214,191.074 122.155,189.812C125.096,188.55 126.566,186.928 126.566,184.947C126.566,182.103 121.332,178.908 110.864,175.361C109.191,174.786 107.896,174.338 106.979,174.019L99.047,171.383C91.33,168.794 85.61,165.871 81.887,162.611C78.164,159.352 76.302,155.662 76.302,151.54C76.302,145.948 79.864,141.362 86.986,137.784C94.109,134.205 103.309,132.416 114.587,132.416C118.742,132.416 123.248,132.703 128.104,133.278C132.961,133.853 138.357,134.748 144.292,135.962L144.292,152.259C138.627,150.15 133.258,148.52 128.185,147.37C123.113,146.219 118.796,145.644 115.235,145.644C111.296,145.644 108.193,146.147 105.927,147.154C103.66,148.161 102.527,149.527 102.527,151.252C102.527,152.466 103.202,153.601 104.551,154.655C105.9,155.71 107.923,156.668 110.621,157.531L124.381,162.036C135.875,165.807 143.604,169.29 147.571,172.485C151.537,175.68 153.52,179.467 153.52,183.844C153.52,190.619 149.621,196.091 141.824,200.261C134.026,204.43 123.68,206.515 110.783,206.515C106.412,206.515 101.664,206.244 96.537,205.701C91.411,205.157 85.772,204.311 79.621,203.16L77.274,184.611Z" style="fill:white;fill-rule:nonzero;"/>
        <path d="M200.465,134.764L200.465,172.964C200.465,179.099 202.367,183.693 206.172,186.744C209.976,189.796 215.736,191.322 223.452,191.322C230.899,191.322 236.578,189.9 240.491,187.056C244.403,184.212 246.359,180.074 246.359,174.642L246.359,134.764L271.369,134.764L271.369,174.642C271.369,184.675 267.026,192.496 258.338,198.104C249.65,203.712 237.59,206.515 222.157,206.515C206.563,206.515 194.435,203.735 185.775,198.176C177.114,192.616 172.784,184.803 172.784,174.738L172.784,134.764L200.465,134.764Z" style="fill:white;fill-rule:nonzero;"/>
        <path d="M328.918,147.513L325.114,147.513L325.114,166.062L330.213,166.062C337.282,166.062 342.678,165.256 346.401,163.642C350.125,162.028 351.986,159.704 351.986,156.668C351.986,153.505 350.152,151.188 346.482,149.718C342.813,148.248 336.958,147.513 328.918,147.513ZM297.109,204.263L297.109,134.764L327.299,134.764C336.581,134.764 343.946,135.163 349.396,135.962C354.846,136.761 359.676,138.103 363.885,139.988C368.255,141.874 371.641,144.23 374.043,147.058C376.444,149.886 377.645,152.882 377.645,156.045C377.645,163.075 373.422,168.651 364.977,172.773C356.533,176.895 345.079,178.956 330.618,178.956C329.107,178.956 327.974,178.948 327.219,178.932C326.463,178.916 325.762,178.892 325.114,178.86L325.114,204.263L297.109,204.263Z" style="fill:white;fill-rule:nonzero;"/>
        <path d="M395.047,204.263L395.047,134.764L467.327,134.764L467.327,149.095L422.243,149.095L422.243,161.653L460.852,161.653L460.852,175.888L422.243,175.888L422.243,189.644L467.974,189.644L467.974,204.263L395.047,204.263Z" style="fill:white;fill-rule:nonzero;"/>
        <path d="M521.152,147.418L516.539,147.418L516.539,166.686L522.448,166.686C529.516,166.686 534.912,165.839 538.636,164.145C542.359,162.452 544.221,160.023 544.221,156.86C544.221,153.537 542.413,151.132 538.798,149.646C535.182,148.161 529.301,147.418 521.152,147.418ZM489.343,204.263L489.343,134.764L519.534,134.764C529.193,134.764 536.68,135.14 541.995,135.89C547.31,136.641 552.018,137.896 556.119,139.653C560.49,141.506 563.876,143.799 566.277,146.531C568.678,149.263 569.879,152.147 569.879,155.182C569.879,159.56 568.004,163.394 564.253,166.686C560.503,169.977 555.094,172.549 548.025,174.402L583.801,204.263L551.829,204.263L520.505,176.99L516.539,176.99L516.539,204.263L489.343,204.263Z" style="fill:white;fill-rule:nonzero;"/>
        <path d="M589.628,184.611C596.859,187.232 602.997,189.069 608.042,190.123C613.088,191.178 618.012,191.705 622.814,191.705C627.67,191.705 631.569,191.074 634.51,189.812C637.451,188.55 638.921,186.928 638.921,184.947C638.921,182.103 633.687,178.908 623.219,175.361C621.546,174.786 620.251,174.338 619.334,174.019L611.401,171.383C603.685,168.794 597.965,165.871 594.242,162.611C590.519,159.352 588.657,155.662 588.657,151.54C588.657,145.948 592.218,141.362 599.341,137.784C606.464,134.205 615.664,132.416 626.942,132.416C631.097,132.416 635.603,132.703 640.459,133.278C645.316,133.853 650.712,134.748 656.647,135.962L656.647,152.259C650.981,150.15 645.612,148.52 640.54,147.37C635.468,146.219 631.151,145.644 627.59,145.644C623.65,145.644 620.548,146.147 618.281,147.154C616.015,148.161 614.882,149.527 614.882,151.252C614.882,152.466 615.556,153.601 616.905,154.655C618.254,155.71 620.278,156.668 622.976,157.531L636.736,162.036C648.229,165.807 655.959,169.29 659.925,172.485C663.891,175.68 665.875,179.467 665.875,183.844C665.875,190.619 661.976,196.091 654.179,200.261C646.381,204.43 636.034,206.515 623.138,206.515C618.767,206.515 614.018,206.244 608.892,205.701C603.766,205.157 598.127,204.311 591.976,203.16L589.628,184.611Z" style="fill:white;fill-rule:nonzero;"/>
        <path d="M707.802,169.513C707.802,175.553 710.783,180.609 716.746,184.683C722.708,188.757 730.061,190.794 738.802,190.794C747.598,190.794 754.963,188.765 760.899,184.707C766.835,180.649 769.802,175.585 769.802,169.513C769.802,163.41 766.835,158.322 760.899,154.248C754.963,150.174 747.598,148.137 738.802,148.137C730.061,148.137 722.708,150.174 716.746,154.248C710.783,158.322 707.802,163.41 707.802,169.513ZM678.987,169.513C678.987,164.369 680.484,159.552 683.479,155.062C686.474,150.573 690.885,146.555 696.713,143.008C702.217,139.621 708.611,137.025 715.896,135.219C723.181,133.414 730.816,132.511 738.802,132.511C746.788,132.511 754.437,133.422 761.749,135.243C769.06,137.065 775.549,139.685 781.215,143.104C786.935,146.523 791.265,150.477 794.206,154.967C797.147,159.456 798.617,164.305 798.617,169.513C798.617,173.859 797.592,177.949 795.542,181.783C793.491,185.618 790.442,189.117 786.395,192.28C780.675,196.786 773.647,200.285 765.31,202.777C756.973,205.269 748.137,206.515 738.802,206.515C730.87,206.515 723.275,205.605 716.017,203.783C708.76,201.962 702.325,199.342 696.713,195.923C690.885,192.376 686.474,188.374 683.479,183.916C680.484,179.459 678.987,174.658 678.987,169.513Z" style="fill:white;fill-rule:nonzero;"/>
        <path d="M818.205,204.263L818.205,132.511L820.876,132.511L893.965,173.06L893.965,134.764L919.786,134.764L919.786,206.899L917.357,206.899L844.025,166.35L844.025,204.263L818.205,204.263Z" style="fill:white;fill-rule:nonzero;"/>
        <rect x="946.982" y="134.764" width="28.005" height="69.499" style="fill:white;fill-rule:nonzero;"/>
        <path d="M1089.03,156.764C1083.96,153.665 1078.82,151.364 1073.61,149.862C1068.41,148.36 1062.94,147.609 1057.22,147.609C1047.29,147.609 1039.17,149.638 1032.86,153.696C1026.55,157.755 1023.39,162.963 1023.39,169.322C1023.39,175.68 1026.52,180.833 1032.78,184.779C1039.04,188.725 1047.19,190.698 1057.22,190.698C1063.16,190.698 1069.08,189.964 1074.99,188.494C1080.9,187.024 1086.79,184.819 1092.67,181.879L1090.89,200.332C1085.88,202.345 1080.38,203.879 1074.42,204.934C1068.46,205.988 1062.27,206.515 1055.85,206.515C1048.94,206.515 1042.32,205.876 1035.98,204.598C1029.64,203.32 1023.79,201.435 1018.45,198.942C1010.9,195.428 1005.11,191.138 1001.09,186.073C997.07,181.009 995.06,175.489 995.06,169.513C995.06,164.369 996.544,159.544 999.512,155.039C1002.48,150.533 1006.8,146.555 1012.46,143.104C1018.18,139.653 1024.79,137.009 1032.29,135.171C1039.79,133.334 1047.7,132.416 1056.01,132.416C1062.59,132.416 1068.88,132.959 1074.87,134.045C1080.86,135.132 1086.58,136.777 1092.03,138.982L1089.03,156.764Z" style="fill:white;fill-rule:nonzero;"/>
    </g>
</svg>
