<?xml version="1.0" encoding="UTF-8" standalone="no"?>
<!DOCTYPE svg PUBLIC "-//W3C//DTD SVG 1.1//EN" "http://www.w3.org/Graphics/SVG/1.1/DTD/svg11.dtd">
<svg width="100%" height="100%" viewBox="0 0 1140 216" version="1.1" xmlns="http://www.w3.org/2000/svg" xmlns:xlink="http://www.w3.org/1999/xlink" xml:space="preserve" xmlns:serif="http://www.serif.com/" style="fill-rule:evenodd;clip-rule:evenodd;stroke-linejoin:round;stroke-miterlimit:2;">
    <path d="M28.914,119.248L47.11,132.42L444.896,142.67L543.388,215.936L600.172,215.96L698.34,142.79L1096.71,132.411L1114.78,119.136L689.862,124.18L593.962,177.431L549.542,177.423L453.52,124.216L28.914,119.248Z" style="fill:rgb(56,125,197);fill-rule:nonzero;"/>
    <path d="M486.81,63.368C486.81,33.187 521.672,18.83 551.122,18.83C580.57,18.83 615.24,32.993 615.24,63.368C615.24,93.744 580.45,108.101 551.122,108.101C521.792,108.101 486.81,93.378 486.81,63.368ZM534.81,62.721C534.81,71.379 538.924,85 551.122,85C563.32,85 567.338,71.379 567.338,62.721C567.338,54.063 563.224,40.634 551.122,40.634C539.02,40.634 534.81,54.063 534.81,62.721ZM357.466,54.171L362.496,54.171C368.028,54.171 375.222,53.891 375.222,47.457C375.222,41.025 368.462,40.656 363.024,40.656L357.49,40.656L357.49,54.193L357.466,54.193L357.466,54.171ZM434.794,101.473L408.544,74.875C433.566,51.582 418.072,18.83 381.67,18.83L309.878,18.83L310.19,85.54L266.498,18.83L215.924,18.83L157.148,108.101L214.168,108.101L221.554,95.039L262.792,95.039L271.214,108.015L357.466,108.101L357.466,78.2L384.654,108.101L481.998,108.101L481.998,18.83L434.818,18.83L434.818,101.473L434.794,101.473ZM233.248,71.097L249.56,71.097L241.548,55.64L233.248,71.097ZM69.668,108.101L69.668,4.106L116.752,4.106L116.752,61.252L151.926,4.106L205.988,4.106L136.746,108.101L69.668,108.101ZM1026.39,108.101L1060.75,18.83L1096.74,18.83L1062.39,108.101L1026.39,108.101ZM980.632,108.101L1004.52,47.629L1040.42,47.629L1016.62,108.101L976.54,108.101L980.632,108.101ZM1006.78,40.634L1015.4,18.83L1051.39,18.83L1042.68,40.722L1006.78,40.634ZM913.458,18.83L948.752,18.83L938.502,47.717C937.878,49.552 960.758,32.259 980.246,51.862C1005.17,76.991 958.088,130.1 918.076,102.942L916.344,108.101L879.412,108.101L913.458,18.83ZM949.066,76.256C950.604,72.198 950.702,68.981 949.378,66.586C948.15,64.188 945.696,63.001 942.208,63.001C938.72,63.001 935.328,64.188 932.368,66.586C929.288,68.981 927.026,72.198 925.608,76.256C924.068,80.209 923.972,83.533 925.198,86.015C926.426,88.584 928.782,89.879 932.368,89.879C935.76,89.879 939.128,88.584 942.208,86.015C945.384,83.533 947.646,80.209 949.09,76.256L949.066,76.256ZM824.75,111.684C800.858,111.858 781.25,96.594 790.49,74.033C799.318,52.682 818.086,42.47 850.084,42.924C865.362,43.118 882.71,51.105 884.85,65.657C888.844,92.061 861.97,112.31 824.75,111.684ZM831.318,90.7C834.59,90.894 837.67,89.771 840.654,87.398C843.732,85 846.09,81.784 847.726,77.639C849.362,73.494 849.676,70.082 848.762,67.514C847.726,64.837 845.682,63.456 842.41,63.282C839.018,63.001 835.938,64.102 832.858,66.5C829.994,68.895 827.636,72.198 825.88,76.344C824.244,80.489 823.932,83.899 824.846,86.469C825.88,89.145 828.022,90.528 831.318,90.7ZM630.974,107.907L655.9,43.658L691.388,43.658L688.814,50.653C700.002,41.347 728.102,40.526 734.864,51.948C751.488,36.576 793.52,40.722 785.846,67.686L769.438,108.101L734.166,108.101C736.21,102.66 738.28,97.608 740.326,92.277C742.49,86.835 744.536,81.418 746.58,76.084C746.798,75.632 746.99,74.789 747.086,73.883C747.086,72.954 747.086,71.853 746.676,71.033C746.172,69.652 744.632,68.917 743.404,68.549C740.95,67.903 736.524,68.917 734.166,71.681C732.842,73.342 732.314,73.883 731.904,75.177L718.358,108.123L682.872,108.123L694.756,77.379C697.306,66.888 690.642,66.714 684.916,69.003C681.836,70.558 680.296,74.055 678.974,77.099L666.558,108.123L630.974,107.927L630.974,107.907Z" style="fill:rgb(7,7,7);"/>
</svg>
