<?xml version="1.0" encoding="UTF-8" standalone="no"?>
<!DOCTYPE svg PUBLIC "-//W3C//DTD SVG 1.1//EN" "http://www.w3.org/Graphics/SVG/1.1/DTD/svg11.dtd">
<svg width="100%" height="100%" viewBox="0 0 1140 216" version="1.1" xmlns="http://www.w3.org/2000/svg" xmlns:xlink="http://www.w3.org/1999/xlink" xml:space="preserve" xmlns:serif="http://www.serif.com/" style="fill-rule:evenodd;clip-rule:evenodd;stroke-linejoin:round;stroke-miterlimit:2;">
    <path d="M504.672,60.711C504.672,33.877 530.046,21.111 551.481,21.111C572.914,21.111 598.148,33.704 598.148,60.711C598.148,87.72 572.827,100.486 551.481,100.486C530.133,100.486 504.672,87.394 504.672,60.711ZM539.608,60.136C539.608,67.834 542.603,79.946 551.481,79.946C560.359,79.946 563.284,67.834 563.284,60.136C563.284,52.438 560.289,40.498 551.481,40.498C542.673,40.498 539.608,52.438 539.608,60.136ZM410.531,52.534L414.192,52.534C418.218,52.534 423.455,52.285 423.455,46.564C423.455,40.845 418.534,40.518 414.576,40.518L410.549,40.518L410.549,52.554L410.531,52.554L410.531,52.534ZM466.813,94.592L447.707,70.943C465.919,50.232 454.642,21.111 428.148,21.111L375.895,21.111L376.122,80.426L344.321,21.111L307.512,21.111L264.732,100.486L306.234,100.486L311.609,88.871L341.624,88.871L347.754,100.409L410.531,100.486L410.531,73.899L430.319,100.486L501.17,100.486L501.17,21.111L466.831,21.111L466.831,94.592L466.813,94.592ZM320.121,67.584L331.993,67.584L326.162,53.841L320.121,67.584ZM201.061,100.486L202.93,8.368L235.331,8.019L235.331,58.83L260.932,8.019L300.28,8.019L249.883,100.486L201.061,100.486ZM897.4,100.486L922.407,21.111L948.603,21.111L923.597,100.486L897.4,100.486ZM864.094,100.486L881.482,46.717L907.608,46.717L890.29,100.486L861.116,100.486L864.094,100.486ZM883.128,40.498L889.398,21.111L915.594,21.111L909.255,40.576L883.128,40.498ZM815.202,21.111L840.89,21.111L833.43,46.796C832.976,48.427 849.629,33.051 863.813,50.481C881.955,72.824 847.685,120.046 818.563,95.899L817.303,100.486L790.422,100.486L815.202,21.111ZM841.119,72.171C842.238,68.562 842.31,65.703 841.346,63.573C840.452,61.441 838.666,60.386 836.127,60.386C833.589,60.386 831.12,61.441 828.966,63.573C826.724,65.703 825.077,68.562 824.045,72.171C822.924,75.685 822.855,78.641 823.747,80.848C824.641,83.133 826.356,84.284 828.966,84.284C831.434,84.284 833.886,83.133 836.127,80.848C838.439,78.641 840.085,75.685 841.136,72.171L841.119,72.171ZM750.637,103.671C733.248,103.826 718.976,90.254 725.702,70.194C732.127,51.21 745.787,42.13 769.076,42.534C780.196,42.706 792.823,49.808 794.38,62.747C797.287,86.224 777.727,104.228 750.637,103.671ZM755.418,85.014C757.799,85.186 760.041,84.188 762.213,82.077C764.453,79.946 766.169,77.086 767.36,73.401C768.551,69.715 768.779,66.681 768.114,64.398C767.36,62.017 765.872,60.789 763.491,60.635C761.022,60.386 758.78,61.364 756.539,63.496C754.454,65.626 752.738,68.562 751.46,72.249C750.269,75.935 750.042,78.967 750.707,81.252C751.46,83.631 753.019,84.86 755.418,85.014ZM609.6,100.313L627.742,43.187L653.572,43.187L651.698,49.406C659.841,41.132 680.293,40.402 685.215,50.557C697.315,36.889 727.907,40.576 722.322,64.551L710.379,100.486L684.707,100.486C686.195,95.648 687.701,91.156 689.19,86.416C690.765,81.577 692.255,76.76 693.742,72.018C693.901,71.616 694.041,70.867 694.111,70.061C694.111,69.235 694.111,68.256 693.812,67.527C693.445,66.299 692.324,65.646 691.431,65.318C689.645,64.743 686.423,65.646 684.707,68.103C683.743,69.58 683.359,70.061 683.061,71.212L673.201,100.506L647.373,100.506L656.023,73.169C657.879,63.841 653.029,63.687 648.861,65.722C646.619,67.105 645.498,70.214 644.536,72.92L635.499,100.506L609.6,100.331L609.6,100.313Z" style="fill:rgb(7,7,7);"/>
    <path d="M185.899,119.31L198.589,132.245L475.814,142.347L544.469,214.22L584.003,214.22L652.496,142.42L930.127,132.245L942.736,119.237L646.558,124.179L579.692,176.43L548.781,176.43L481.833,124.179L185.899,119.31Z" style="fill:rgb(128,128,128);fill-rule:nonzero;"/>
</svg>
