<?xml version="1.0" encoding="UTF-8" standalone="no"?>
<!DOCTYPE svg PUBLIC "-//W3C//DTD SVG 1.1//EN" "http://www.w3.org/Graphics/SVG/1.1/DTD/svg11.dtd">
<svg width="100%" height="100%" viewBox="0 0 1140 216" version="1.1" xmlns="http://www.w3.org/2000/svg" xmlns:xlink="http://www.w3.org/1999/xlink" xml:space="preserve" xmlns:serif="http://www.serif.com/" style="fill-rule:evenodd;clip-rule:evenodd;stroke-linejoin:round;stroke-miterlimit:2;">
    <path d="M50.326,120.976L67.633,134.003L445.971,144.141L539.648,216.603L593.656,216.627L687.025,144.259L1065.91,133.994L1083.11,120.865L678.961,125.854L587.75,178.52L545.501,178.513L454.174,125.889L50.326,120.976Z" style="fill:white;fill-rule:nonzero;"/>
    <path d="M486.81,63.901C486.81,33.449 521.672,18.962 551.122,18.962C580.57,18.962 615.24,33.253 615.24,63.901C615.24,94.551 580.45,109.037 551.122,109.037C521.792,109.037 486.81,94.181 486.81,63.901ZM534.81,63.249C534.81,71.984 538.924,85.728 551.122,85.728C563.32,85.728 567.338,71.984 567.338,63.249C567.338,54.513 563.224,40.963 551.122,40.963C539.02,40.963 534.81,54.513 534.81,63.249ZM357.466,54.622L362.496,54.622C368.028,54.622 375.222,54.339 375.222,47.847C375.222,41.357 368.462,40.985 363.024,40.985L357.49,40.985L357.49,54.644L357.466,54.644L357.466,54.622ZM434.794,102.349L408.544,75.512C433.566,52.009 418.072,18.962 381.67,18.962L309.878,18.962L310.19,86.273L266.498,18.962L215.924,18.962L157.148,109.037L214.168,109.037L221.554,95.857L262.792,95.857L271.214,108.95L357.466,109.037L357.466,78.866L384.654,109.037L481.998,109.037L481.998,18.962L434.818,18.962L434.818,102.349L434.794,102.349ZM233.248,71.7L249.56,71.7L241.548,56.104L233.248,71.7ZM69.668,109.037L69.668,4.106L116.752,4.106L116.752,61.766L151.926,4.106L205.988,4.106L136.746,109.037L69.668,109.037ZM1026.39,109.037L1060.75,18.962L1096.74,18.962L1062.39,109.037L1026.39,109.037ZM980.632,109.037L1004.52,48.021L1040.42,48.021L1016.62,109.037L976.54,109.037L980.632,109.037ZM1006.78,40.963L1015.4,18.962L1051.39,18.962L1042.68,41.052L1006.78,40.963ZM913.458,18.962L948.752,18.962L938.502,48.11C937.878,49.961 960.758,32.512 980.246,52.292C1005.17,77.647 958.088,131.234 918.076,103.831L916.344,109.037L879.412,109.037L913.458,18.962ZM949.066,76.906C950.604,72.81 950.702,69.565 949.378,67.148C948.15,64.729 945.696,63.531 942.208,63.531C938.72,63.531 935.328,64.729 932.368,67.148C929.288,69.565 927.026,72.81 925.608,76.906C924.068,80.894 923.972,84.248 925.198,86.752C926.426,89.345 928.782,90.651 932.368,90.651C935.76,90.651 939.128,89.345 942.208,86.752C945.384,84.248 947.646,80.894 949.09,76.906L949.066,76.906ZM824.75,112.652C800.858,112.828 781.25,97.426 790.49,74.662C799.318,53.12 818.086,42.815 850.084,43.273C865.362,43.469 882.71,51.528 884.85,66.211C888.844,92.852 861.97,113.284 824.75,112.652ZM831.318,91.479C834.59,91.675 837.67,90.542 840.654,88.147C843.732,85.728 846.09,82.483 847.726,78.301C849.362,74.119 849.676,70.676 848.762,68.085C847.726,65.383 845.682,63.99 842.41,63.814C839.018,63.531 835.938,64.642 832.858,67.061C829.994,69.478 827.636,72.81 825.88,76.994C824.244,81.176 823.932,84.617 824.846,87.21C825.88,89.91 828.022,91.305 831.318,91.479ZM630.974,108.841L655.9,44.014L691.388,44.014L688.814,51.072C700.002,41.682 728.102,40.854 734.864,52.378C751.488,36.868 793.52,41.052 785.846,68.259L769.438,109.037L734.166,109.037C736.21,103.547 738.28,98.45 740.326,93.07C742.49,87.58 744.536,82.113 746.58,76.732C746.798,76.275 746.99,75.425 747.086,74.51C747.086,73.574 747.086,72.463 746.676,71.635C746.172,70.242 744.632,69.5 743.404,69.129C740.95,68.477 736.524,69.5 734.166,72.289C732.842,73.965 732.314,74.51 731.904,75.817L718.358,109.059L682.872,109.059L694.756,78.038C697.306,67.453 690.642,67.277 684.916,69.587C681.836,71.156 680.296,74.684 678.974,77.756L666.558,109.059L630.974,108.862L630.974,108.841Z" style="fill:white;"/>
</svg>
