<?xml version="1.0" encoding="UTF-8" standalone="no"?>
<!DOCTYPE svg PUBLIC "-//W3C//DTD SVG 1.1//EN" "http://www.w3.org/Graphics/SVG/1.1/DTD/svg11.dtd">
<svg width="100%" height="100%" viewBox="0 0 570 108" version="1.1" xmlns="http://www.w3.org/2000/svg" xmlns:xlink="http://www.w3.org/1999/xlink" xml:space="preserve" xmlns:serif="http://www.serif.com/" style="fill-rule:evenodd;clip-rule:evenodd;stroke-linejoin:round;stroke-miterlimit:2;">
    <path d="M14.457,63.05L23.555,68.568L222.448,72.862L271.694,103.555L300.086,103.565L349.17,72.912L548.353,68.564L557.39,63.003L344.931,65.116L296.981,87.424L274.771,87.421L226.76,65.131L14.457,63.05Z" style="fill:rgb(56,125,197);fill-rule:nonzero;"/>
    <path d="M243.405,34.409C243.405,17.931 260.836,10.092 275.561,10.092C290.285,10.092 307.62,17.825 307.62,34.409C307.62,50.994 290.225,58.833 275.561,58.833C260.896,58.833 243.405,50.794 243.405,34.409ZM267.405,34.056C267.405,38.783 269.462,46.22 275.561,46.22C281.66,46.22 283.669,38.783 283.669,34.056C283.669,29.329 281.612,21.997 275.561,21.997C269.51,21.997 267.405,29.329 267.405,34.056ZM178.733,29.388L181.248,29.388C184.014,29.388 187.611,29.235 187.611,25.722C187.611,22.21 184.231,22.009 181.512,22.009L178.745,22.009L178.745,29.4L178.733,29.4L178.733,29.388ZM217.397,55.214L204.272,40.692C216.783,27.974 209.036,10.092 190.835,10.092L154.939,10.092L155.095,46.515L133.249,10.092L107.962,10.092L78.574,58.833L107.084,58.833L110.777,51.701L131.396,51.701L135.607,58.786L178.733,58.833L178.733,42.507L192.327,58.833L240.999,58.833L240.999,10.092L217.409,10.092L217.409,55.214L217.397,55.214ZM116.624,38.629L124.78,38.629L120.774,30.19L116.624,38.629ZM34.834,58.833L34.834,2.053L58.376,2.053L58.376,33.254L75.963,2.053L102.994,2.053L68.373,58.833L34.834,58.833ZM513.196,58.833L530.375,10.092L548.371,10.092L531.193,58.833L513.196,58.833ZM490.316,58.833L502.261,25.816L520.209,25.816L508.312,58.833L488.27,58.833L490.316,58.833ZM503.392,21.997L507.699,10.092L525.695,10.092L521.34,22.045L503.392,21.997ZM456.729,10.092L474.376,10.092L469.251,25.864C468.939,26.866 480.379,17.424 490.123,28.127C502.586,41.847 479.044,70.844 459.038,56.016L458.172,58.833L439.706,58.833L456.729,10.092ZM474.533,41.446C475.302,39.23 475.351,37.474 474.689,36.166C474.075,34.857 472.848,34.209 471.104,34.209C469.36,34.209 467.664,34.857 466.184,36.166C464.644,37.474 463.513,39.23 462.804,41.446C462.034,43.604 461.986,45.419 462.599,46.774C463.213,48.177 464.391,48.884 466.184,48.884C467.88,48.884 469.564,48.177 471.104,46.774C472.692,45.419 473.823,43.604 474.545,41.446L474.533,41.446ZM412.375,60.789C400.429,60.884 390.625,52.55 395.245,40.232C399.659,28.575 409.043,22.999 425.042,23.247C432.681,23.353 441.355,27.714 442.425,35.659C444.422,50.075 430.985,61.131 412.375,60.789ZM415.659,49.332C417.295,49.438 418.835,48.825 420.327,47.529C421.866,46.22 423.045,44.464 423.863,42.201C424.681,39.938 424.838,38.075 424.381,36.673C423.863,35.211 422.841,34.457 421.205,34.362C419.509,34.209 417.969,34.81 416.429,36.119C414.997,37.427 413.818,39.23 412.94,41.494C412.122,43.757 411.966,45.619 412.423,47.022C412.94,48.483 414.011,49.238 415.659,49.332ZM315.487,58.727L327.95,23.648L345.694,23.648L344.407,27.467C350.001,22.386 364.051,21.938 367.432,28.174C375.744,19.781 396.76,22.045 392.923,36.767L384.719,58.833L367.083,58.833C368.105,55.862 369.14,53.104 370.163,50.193C371.245,47.222 372.268,44.264 373.29,41.352C373.399,41.105 373.495,40.645 373.543,40.15C373.543,39.643 373.543,39.042 373.338,38.594C373.086,37.84 372.316,37.439 371.702,37.238C370.475,36.885 368.262,37.439 367.083,38.948C366.421,39.855 366.157,40.15 365.952,40.857L359.179,58.845L341.436,58.845L347.378,42.059C348.653,36.331 345.321,36.236 342.458,37.486C340.918,38.335 340.148,40.244 339.487,41.906L333.279,58.845L315.487,58.738L315.487,58.727Z" style="fill:rgb(7,7,7);"/>
</svg>
