<?xml version="1.0" encoding="UTF-8" standalone="no"?><!DOCTYPE svg PUBLIC "-//W3C//DTD SVG 1.1//EN" "http://www.w3.org/Graphics/SVG/1.1/DTD/svg11.dtd"><svg width="100%" height="100%" viewBox="0 0 1140 216" version="1.1" xmlns="http://www.w3.org/2000/svg" xmlns:xlink="http://www.w3.org/1999/xlink" xml:space="preserve" xmlns:serif="http://www.serif.com/" style="fill-rule:evenodd;clip-rule:evenodd;stroke-linejoin:round;stroke-miterlimit:2;"><path d="M504.672,60.711c0,-26.834 25.374,-39.6 46.809,-39.6c21.433,0 46.667,12.593 46.667,39.6c0,27.009 -25.321,39.775 -46.667,39.775c-21.348,0 -46.809,-13.092 -46.809,-39.775Zm34.936,-0.575c0,7.698 2.995,19.81 11.873,19.81c8.878,0 11.803,-12.112 11.803,-19.81c0,-7.698 -2.995,-19.638 -11.803,-19.638c-8.808,0 -11.873,11.94 -11.873,19.638Zm-129.077,-7.602l3.661,0c4.026,0 9.263,-0.249 9.263,-5.97c0,-5.719 -4.921,-6.046 -8.879,-6.046l-4.027,0l0,12.036l-0.018,0l0,-0.02Zm56.282,42.058l-19.106,-23.649c18.212,-20.711 6.935,-49.832 -19.559,-49.832l-52.253,0l0.227,59.315l-31.801,-59.315l-36.809,0l-42.78,79.375l41.502,0l5.375,-11.615l30.015,0l6.13,11.538l62.777,0.077l0,-26.587l19.788,26.587l70.851,0l0,-79.375l-34.339,0l0,73.481l-0.018,0Zm-146.692,-27.008l11.872,0l-5.831,-13.743l-6.041,13.743Zm-119.06,32.902l1.869,-92.118l32.401,-0.349l0,50.811l25.601,-50.811l39.348,0l-50.397,92.467l-48.822,0Zm696.339,0l25.007,-79.375l26.196,0l-25.006,79.375l-26.197,0Zm-33.306,0l17.388,-53.769l26.126,0l-17.318,53.769l-29.174,0l2.978,0Zm19.034,-59.988l6.27,-19.387l26.196,0l-6.339,19.465l-26.127,-0.078Zm-67.926,-19.387l25.688,0l-7.46,25.685c-0.454,1.631 16.199,-13.745 30.383,3.685c18.142,22.343 -16.128,69.565 -45.25,45.418l-1.26,4.587l-26.881,0l24.78,-79.375Zm25.917,51.06c1.119,-3.609 1.191,-6.468 0.227,-8.598c-0.894,-2.132 -2.68,-3.187 -5.219,-3.187c-2.538,0 -5.007,1.055 -7.161,3.187c-2.242,2.13 -3.889,4.989 -4.921,8.598c-1.121,3.514 -1.19,6.47 -0.298,8.677c0.894,2.285 2.609,3.436 5.219,3.436c2.468,0 4.92,-1.151 7.161,-3.436c2.312,-2.207 3.958,-5.163 5.009,-8.677l-0.017,0Zm-90.482,31.5c-17.389,0.155 -31.661,-13.417 -24.935,-33.477c6.425,-18.984 20.085,-28.064 43.374,-27.66c11.12,0.172 23.747,7.274 25.304,20.213c2.907,23.477 -16.653,41.481 -43.743,40.924Zm4.781,-18.657c2.381,0.172 4.623,-0.826 6.795,-2.937c2.24,-2.131 3.956,-4.991 5.147,-8.676c1.191,-3.686 1.419,-6.72 0.754,-9.003c-0.754,-2.381 -2.242,-3.609 -4.623,-3.763c-2.469,-0.249 -4.711,0.729 -6.952,2.861c-2.085,2.13 -3.801,5.066 -5.079,8.753c-1.191,3.686 -1.418,6.718 -0.753,9.003c0.753,2.379 2.312,3.608 4.711,3.762Zm-145.818,15.299l18.142,-57.126l25.83,0l-1.874,6.219c8.143,-8.274 28.595,-9.004 33.517,1.151c12.1,-13.668 42.692,-9.981 37.107,13.994l-11.943,35.935l-25.672,0c1.488,-4.838 2.994,-9.33 4.483,-14.07c1.575,-4.839 3.065,-9.656 4.552,-14.398c0.159,-0.402 0.299,-1.151 0.369,-1.957c0,-0.826 0,-1.805 -0.299,-2.534c-0.367,-1.228 -1.488,-1.881 -2.381,-2.209c-1.786,-0.575 -5.008,0.328 -6.724,2.785c-0.964,1.477 -1.348,1.958 -1.646,3.109l-9.86,29.294l-25.828,0l8.65,-27.337c1.856,-9.328 -2.994,-9.482 -7.162,-7.447c-2.242,1.383 -3.363,4.492 -4.325,7.198l-9.037,27.586l-25.899,-0.175l0,-0.018Z" style="fill:#fff;"/><path d="M221.899,120.291l11.432,9.53l249.753,7.443l61.852,52.956l35.616,0l61.706,-52.902l250.119,-7.497l11.359,-9.584l-266.828,3.641l-60.24,38.498l-27.848,0l-60.314,-38.498l-266.608,-3.587l0.001,-0Z" style="fill:#fff;fill-rule:nonzero;"/></svg>