<?xml version="1.0" encoding="UTF-8" standalone="no"?><!DOCTYPE svg PUBLIC "-//W3C//DTD SVG 1.1//EN" "http://www.w3.org/Graphics/SVG/1.1/DTD/svg11.dtd"><svg width="100%" height="100%" viewBox="0 0 32 32" version="1.1" xmlns="http://www.w3.org/2000/svg" xmlns:xlink="http://www.w3.org/1999/xlink" xml:space="preserve" xmlns:serif="http://www.serif.com/" style="fill-rule:evenodd;clip-rule:evenodd;stroke-linejoin:round;stroke-miterlimit:2;"><path d="M13.494,13.139c0,-1.503 1.031,-2.218 1.902,-2.218c0.871,0 1.896,0.705 1.896,2.218c0,1.513 -1.029,2.228 -1.896,2.228c-0.867,0 -1.902,-0.733 -1.902,-2.228Zm1.42,-0.032c0,0.431 0.122,1.109 0.482,1.109c0.361,0 0.48,-0.678 0.48,-1.109c0,-0.431 -0.122,-1.1 -0.48,-1.1c-0.358,0 -0.482,0.669 -0.482,1.1Zm-5.245,-0.426l0.149,0c0.164,0 0.376,-0.014 0.376,-0.334c0,-0.32 -0.2,-0.339 -0.361,-0.339l-0.164,0l0,0.674l-0.001,0l0,-0.001Zm2.287,2.355l-0.776,-1.324c0.74,-1.16 0.282,-2.791 -0.795,-2.791l-2.123,0l0.009,3.322l-1.292,-3.322l-1.496,0l-1.738,4.445l1.686,0l0.218,-0.65l1.22,0l0.249,0.646l2.551,0.004l0,-1.489l0.804,1.489l2.879,0l0,-4.445l-1.395,0l0,4.115l-0.001,0Zm-5.961,-1.513l0.482,0l-0.237,-0.77l-0.245,0.77Zm-4.838,1.843l0.076,-5.159l1.317,-0.02l0,2.846l1.04,-2.846l1.599,0l-2.048,5.179l-1.984,0Zm28.296,0l1.016,-4.445l1.064,0l-1.016,4.445l-1.065,0Zm-1.353,0l0.707,-3.011l1.062,0l-0.704,3.011l-1.186,0l0.121,0Zm0.773,-3.36l0.255,-1.086l1.064,0l-0.258,1.09l-1.062,-0.004Zm-2.76,-1.086l1.044,0l-0.303,1.438c-0.018,0.091 0.658,-0.77 1.235,0.206c0.737,1.251 -0.655,3.896 -1.839,2.544l-0.051,0.257l-1.092,0l1.007,-4.445Zm1.053,2.86c0.045,-0.202 0.048,-0.362 0.009,-0.482c-0.036,-0.119 -0.109,-0.178 -0.212,-0.178c-0.103,0 -0.203,0.059 -0.291,0.178c-0.091,0.119 -0.158,0.279 -0.2,0.482c-0.046,0.197 -0.048,0.362 -0.012,0.486c0.036,0.128 0.106,0.192 0.212,0.192c0.1,0 0.2,-0.064 0.291,-0.192c0.094,-0.124 0.161,-0.289 0.204,-0.486l-0.001,0Zm-3.677,1.764c-0.707,0.009 -1.287,-0.751 -1.013,-1.875c0.261,-1.063 0.816,-1.572 1.763,-1.549c0.452,0.01 0.965,0.407 1.028,1.132c0.118,1.315 -0.677,2.323 -1.778,2.292Zm0.194,-1.045c0.097,0.01 0.188,-0.046 0.276,-0.164c0.091,-0.119 0.161,-0.28 0.209,-0.486c0.048,-0.206 0.058,-0.376 0.031,-0.504c-0.031,-0.133 -0.091,-0.202 -0.188,-0.211c-0.1,-0.014 -0.191,0.041 -0.283,0.16c-0.085,0.119 -0.154,0.284 -0.206,0.49c-0.048,0.206 -0.058,0.376 -0.031,0.504c0.031,0.133 0.094,0.202 0.191,0.211Zm-5.925,0.857l0.737,-3.199l1.05,0l-0.076,0.348c0.331,-0.463 1.162,-0.504 1.362,0.064c0.492,-0.765 1.735,-0.559 1.508,0.784l-0.485,2.013l-1.043,0c0.06,-0.271 0.122,-0.523 0.182,-0.788c0.064,-0.271 0.125,-0.541 0.185,-0.806c0.006,-0.023 0.012,-0.064 0.015,-0.11c0,-0.046 0,-0.101 -0.012,-0.142c-0.015,-0.069 -0.06,-0.105 -0.097,-0.124c-0.073,-0.032 -0.204,0.018 -0.273,0.156c-0.039,0.083 -0.055,0.11 -0.067,0.174l-0.401,1.641l-1.05,0l0.352,-1.531c0.075,-0.522 -0.122,-0.531 -0.291,-0.417c-0.091,0.077 -0.137,0.252 -0.176,0.403l-0.367,1.545l-1.052,-0.01l0,-0.001Z" style="fill:#fff;"/><path d="M0.541,16.421l0.516,0.724l11.265,0.566l2.79,4.025l1.607,0l2.783,-4.021l11.282,-0.57l0.512,-0.729l-12.035,0.277l-2.717,2.926l-1.256,0l-2.72,-2.926l-12.026,-0.273Z" style="fill:#fff;fill-rule:nonzero;"/></svg>