<?xml version="1.0" encoding="UTF-8" standalone="no"?>
<!-- Created with Inkscape (http://www.inkscape.org/) -->

<svg
   width="8.2932358mm"
   height="3.0596647mm"
   viewBox="0 0 8.2932358 3.0596647"
   version="1.1"
   id="svg1"
   xml:space="preserve"
   xmlns:inkscape="http://www.inkscape.org/namespaces/inkscape"
   xmlns:sodipodi="http://sodipodi.sourceforge.net/DTD/sodipodi-0.dtd"
   xmlns="http://www.w3.org/2000/svg"
   xmlns:svg="http://www.w3.org/2000/svg"><sodipodi:namedview
     id="namedview1"
     pagecolor="#ffffff"
     bordercolor="#666666"
     borderopacity="1.0"
     inkscape:showpageshadow="2"
     inkscape:pageopacity="0.0"
     inkscape:pagecheckerboard="0"
     inkscape:deskcolor="#d1d1d1"
     inkscape:document-units="mm" /><defs
     id="defs1" /><g
     inkscape:label="Ebene 1"
     inkscape:groupmode="layer"
     id="layer1"
     transform="translate(-101.95324,-148.13465)"><path
       d="m 105.47366,148.91495 c 0,-0.39767 0.27278,-0.58685 0.50323,-0.58685 0.23046,0 0.50165,0.18654 0.50165,0.58685 0,0.40031 -0.27225,0.58949 -0.50165,0.58949 -0.22939,0 -0.50323,-0.19394 -0.50323,-0.58949 z m 0.37571,-0.008 c 0,0.11404 0.0323,0.29343 0.12752,0.29343 0.0955,0 0.127,-0.17939 0.127,-0.29343 0,-0.11403 -0.0323,-0.29104 -0.127,-0.29104 -0.0947,0 -0.12752,0.17701 -0.12752,0.29104 z m -1.38774,-0.11271 h 0.0394 c 0.0434,0 0.0995,-0.004 0.0995,-0.0884 0,-0.0847 -0.0529,-0.0897 -0.0955,-0.0897 h -0.0434 v 0.17833 h -2.7e-4 v -2.7e-4 z m 0.6051,0.62309 -0.20532,-0.3503 c 0.19579,-0.30692 0.0746,-0.73846 -0.21034,-0.73846 h -0.56171 l 0.002,0.87895 -0.34184,-0.87895 h -0.39582 l -0.45985,1.17608 h 0.44609 l 0.0577,-0.17198 h 0.32279 l 0.0659,0.17092 0.67496,0.001 v -0.39397 l 0.21272,0.39397 h 0.76174 v -1.17608 h -0.3691 v 1.08876 z m -1.57718,-0.40031 h 0.12753 l -0.0627,-0.20373 z m -1.28006,0.48763 0.0201,-1.36499 0.34846,-0.005 v 0.753 l 0.27516,-0.753 h 0.42307 l -0.54186,1.37028 z m 7.48665,0 0.26882,-1.17608 h 0.28152 l -0.26882,1.17608 h -0.28178 z m -0.35798,0 0.18706,-0.79666 h 0.28099 l -0.18627,0.79666 h -0.31379 z m 0.20452,-0.889 0.0675,-0.28734 h 0.28152 l -0.0683,0.2884 -0.28099,-0.001 z m -0.73025,-0.28734 h 0.27623 l -0.0802,0.38047 c -0.005,0.0241 0.1741,-0.20373 0.32676,0.0545 0.195,0.331 -0.1733,1.03082 -0.48657,0.6731 l -0.0135,0.068 h -0.28893 l 0.26644,-1.17607 z m 0.27861,0.75671 c 0.0119,-0.0534 0.0127,-0.0958 0.002,-0.12753 -0.01,-0.0315 -0.0288,-0.0471 -0.0561,-0.0471 -0.0273,0 -0.0537,0.0156 -0.077,0.0471 -0.0241,0.0315 -0.0418,0.0738 -0.0529,0.12753 -0.0122,0.0521 -0.0127,0.0958 -0.003,0.12859 0.01,0.0339 0.0281,0.0508 0.0561,0.0508 0.0264,0 0.0529,-0.0169 0.077,-0.0508 0.0249,-0.0328 0.0426,-0.0765 0.054,-0.12859 z m -0.97287,0.46672 c -0.18706,0.002 -0.34052,-0.1987 -0.26803,-0.49609 0.0691,-0.28125 0.2159,-0.41593 0.46647,-0.40984 0.11959,0.003 0.25532,0.10769 0.27199,0.29951 0.0312,0.34793 -0.17913,0.61463 -0.47043,0.60642 z m 0.0513,-0.27649 c 0.0257,0.003 0.0497,-0.0122 0.073,-0.0434 0.0241,-0.0315 0.0426,-0.0741 0.0553,-0.12859 0.0127,-0.0545 0.0153,-0.0995 0.008,-0.13335 -0.008,-0.0352 -0.0241,-0.0534 -0.0497,-0.0558 -0.0265,-0.004 -0.0505,0.0109 -0.0749,0.0423 -0.0225,0.0315 -0.0407,0.0751 -0.0545,0.12965 -0.0127,0.0545 -0.0153,0.0995 -0.008,0.13335 0.008,0.0352 0.0249,0.0534 0.0505,0.0558 z m -1.56766,0.22675 0.195,-0.8464 h 0.27781 l -0.0201,0.0921 c 0.0876,-0.1225 0.30745,-0.13335 0.36037,0.0169 0.13017,-0.20241 0.45905,-0.1479 0.39899,0.20743 l -0.12833,0.53261 h -0.27596 c 0.0159,-0.0717 0.0323,-0.13838 0.0482,-0.20849 0.0169,-0.0717 0.0331,-0.14314 0.0489,-0.21326 0.002,-0.006 0.003,-0.0169 0.004,-0.0291 0,-0.0122 0,-0.0267 -0.003,-0.0376 -0.004,-0.0183 -0.0159,-0.0278 -0.0257,-0.0328 -0.0193,-0.008 -0.054,0.005 -0.0722,0.0413 -0.0103,0.022 -0.0145,0.0291 -0.0177,0.046 l -0.1061,0.43418 h -0.27781 l 0.0931,-0.40508 c 0.0198,-0.13811 -0.0323,-0.14049 -0.077,-0.11033 -0.0241,0.0204 -0.0363,0.0667 -0.0466,0.10663 l -0.0971,0.40878 -0.27834,-0.003 v -2.7e-4 z"
       style="clip-rule:evenodd;fill:#ff0000;fill-rule:evenodd;stroke-width:0.264583;stroke-linejoin:round;stroke-miterlimit:2"
       id="path1" /><path
       d="m 101.95324,149.78806 0.13652,0.19156 2.98054,0.14976 0.73818,1.06494 h 0.42519 l 0.73633,-1.06389 2.98503,-0.15081 0.13547,-0.19288 -3.18426,0.0733 -0.71887,0.77417 h -0.33232 l -0.71967,-0.77417 -3.18188,-0.0722 z"
       style="clip-rule:evenodd;fill:#ff0000;fill-rule:nonzero;stroke-width:0.264583;stroke-linejoin:round;stroke-miterlimit:2"
       id="path2" /></g></svg>
